<?xml version="1.0" encoding="UTF-8"?>
<svg xmlns="http://www.w3.org/2000/svg" xmlns:xlink="http://www.w3.org/1999/xlink" version="1.1" id="Layer_1" x="0px" y="0px" viewBox="0 0 600 600" style="enable-background:new 0 0 600 600;" xml:space="preserve">
<style type="text/css">
	.st0{fill-rule:evenodd;clip-rule:evenodd;fill:#39933C;}
	.st1{fill-rule:evenodd;clip-rule:evenodd;fill:#166815;}
	.st2{fill-rule:evenodd;clip-rule:evenodd;fill:#FFFFFF;}
	.st3{fill-rule:evenodd;clip-rule:evenodd;fill:#000100;}
</style>
<g>
	<path class="st0" d="M357.5,13.3h11.8c3.4,0,5.9,0.6,8.9,0.6c5.4,0,13.5-0.2,17.9,1.7l19.5,9.6c4.2,2.1,8,4.9,11.3,8.2   c3.4,3.4,5.9,6.7,8.6,10.7c0.7,1,1.2,1.8,1.9,2.8c2.1,2.8,4.5,5.5,6.1,8.7l7.4,12.1c0.7,1.1,1.1,1.9,1.7,3   c3.7,6.2,8.1,12.1,9.7,19.3c0.3,1.4-0.1,3.2,0.9,4.1c0.5,0.5,2.4,1.1,3.2,1.6c1,0.6,2,1.3,3,2c2.8,1.9,14.7,10.1,17,12.3   c2,1.8,7.9,8.1,9.4,10.2c0.7,1,1.2,1.8,2,2.7c3.2,3.6,5.2,7.7,7.3,11.9c1,2,4,2.9,5.9,3.8l14.8,9.7c3.1,2.3,8.2,7.2,8.2,11.9   c0,1.5-0.5,3.5-1.2,4.4c-1.5,1.9-2.6,0.7-4.4,1.5c-0.3,0.3,0,10,0,11c0,4.1-0.9,7.1-0.9,11.3c0,2.6,0.7,4.3,0.9,6.5   c0.1,1.2-0.1,2.2,0.1,3.4c1,6.9-0.1,10.3-0.9,16.8c-0.3,2.2-0.6,3.8-1.7,5.7c-4.9,9.6-1.3,4.2-8.6,13.9c-1.2,1.6-2.2,2.5-3.5,3.9   c-4.1,4.1-5.9,3.9,1.6,10.1c1.6,1.3,3.7,4.4,5.2,6c0.9,0.9,1.4,2,2.3,3.1c2.5,3.2,4.6,7,6.1,10.8c0.5,1.4,0.7,2.8,1.2,4.2   c0.7,2.1,2.6,2.8,4,4.3c1.3,1.4,2.8,3,3.9,4.7c1.4,2.2,6.7,12.8,6.7,15.5c0,8.6-2.3,11-6.5,17.2c-1.4,2.2-3.5,3.7-5.3,5.4l-5.1,5.5   c-7.5,9.9-5.9,8.5-3.8,11.2c1.4,1.9,3.5,6.5,3.5,8.9c0,6.6-0.6,10.1-4.6,15.2c-1.6,2-2.7,4.1-4.5,5.9c-1.6,1.6-6.6,7.6-6.6,9.4   c0,0.9,1.2,3.4,1.4,4.2c1.3,3.6,0.7,12.1-0.2,15.7l-1.6,4.6c-3.1,7.6-5.1,9.2-9.9,15.3c-4.1,5.3-8.4,5.7-3.5,11.7   c0.6,0.8,1,1.1,1.6,1.9c2.9,4,6.8,4.9,10.9,7.4c3,1.8,6.5,3.1,9.4,5.1c2.9,2,5.7,3.8,8.7,5.8l6.1,4.6c0.7,0.5,1.6,1,2.3,1.6   l7.6,6.9c7.1,6.8,12.6,16.5,16.3,20.1l6.9,7.6c1.2,1.5,2,2.9,3.1,4.3c5.3,7,5.7,13,10.2,19.1c1.1,1.5,2,2.5,3,4.1   c1.9,3.2,3.8,5.8,5.4,9.1c2.5,5,4,10.4,6.5,15.4c0.7,1.4,3.7,9.7,3.7,11.2c0,6.2-3.1,11.8-7.6,15.2c-0.7,0.5-1.5,0.8-2.3,1.3   c-3,2.1-2,1.9-6.5,4.2c-3.2,1.6-5.8,3.8-9.1,5.1l-4.9,2.2c-3.2,1.5-6.8,3-10.5,3.7c-2.2,0.5-3.1,1.1-5.6,1.6   c-2,0.3-3.8,0.7-5.8,1.3c-3.8,1.1-7.2,2.3-11.2,3l-13.2,1.3h-12.1c-2.1,0-2.8-0.6-4.7-0.6c-3.3-0.1-7.2,0.4-10.3-0.4   c-4.8-1.2-10.9-0.5-15.8-0.5c-5.1,0-10.2-0.8-15.1-1.2c-1.9-0.2-2.8-0.6-4.7-0.6c-4.7,0-5.2-0.5-9.7-1.3c-3.9-0.7-4.6-0.4-8.6-2   l-7.7-3.3c-3.2-1.5-10-6.3-13.2-8.4c-1.1-0.8-2.1-1.3-3.1-2.2c-2.4-2-5.2-3.8-7.9-5.5c-0.8-0.5-1-0.7-1.7-1.2l-6.7-3.9   c-1.6-0.7-1.8-1.2-3.2-2.2c-1.1-0.8-2.4-1.3-3.6-2c-4.5-2.7-5.5-6.8-7.2-11.4c-0.3-0.8-0.6-1.2-0.8-2.1c-0.6,0-0.8,0-1.4,0.1   c-2.4,0.6-4.6,9.8-14.1,14.6c-0.8,0.4-1.3,0.7-2,0.9c-1.1,0.4-1.3,0.4-2.3,1c-1.5,0.9-9.3,3.1-12.9,5.2c-1.4,0.8-3.3,0.8-4.9,1.3   c-2.5,0.8-12.3,3.2-14.8,3.2c-5.8,0-19.6-0.4-24.3,0c-2.2,0.2-2.5,0.9-5.3,0.9l-36.4,0c-3.4,0-9-0.6-11.8,0.4   c-4,1.4-9.7-0.2-14.2,1c-0.8,0.2-1.2,0.6-2.2,0.7c-1.9,0.2-4.1-0.1-6.1,0.1c-2.1,0.3-3.3,0.8-5.4,0.8c-2.7,0-3.5,0.9-5.3,0.9h-34.4   c-2.1,0-2.4-0.9-8.6-0.9c-3.2,0-6.6,0.1-9.8,0c-1.7,0-2.3-0.5-3.9-0.8c-3-0.5-6.6,0.4-9.6-0.2c-2.2-0.5-0.4-0.6-4.2-0.8   c-1.3-0.1-2.8-0.2-4.5-0.3c-1.6-0.1-2.4-0.8-3.9-0.9c-1.8-0.1-2.9,0.1-4.4-0.3c-0.7-0.2-1.3-0.4-1.8-0.5c-0.9-0.1-1.7,0-2.6-0.1   c-2.2-0.2-13.1-3-16.6-3c-5.4,0.1-9.9-3-15-4.2c-1.5-0.3-2.4-0.1-4-0.7c-3.7-1.5-7.5-2.1-11.3-3.5l-7-2.7c-1.3-0.4-2.4-0.6-3.6-1.1   c-2.3-0.9-4.4-2.1-6.3-3.5c-1.4-1-2-0.9-3.6-1.5c-2.3-0.8-4.3-2.2-6.5-3.3c-3.4-1.9-6-1.9-9.8-4.5c-2.9-2-6.3-3.6-9.2-5.6   c-1-0.7-1.7-1.2-2.8-1.9c-1.3-0.7-2.3-0.7-3.4-1.7c-3.5-3.2-6.4-6.2-9.8-9.5c-2-2-3.6-4.5-5.3-6.9c-3.6-5-3.5-3.3-6.8-10   c-0.6-1.3-1.1-1.8-1.7-3.1c-0.7-1.4-0.9-2.3-1.3-3.7c-0.7-2.4-1.8-4.7-2.8-6.9c-1.9-4.2-2.4-6.6-3.8-10.7c-1.9-5.6-1.6-7-2.7-12.1   c-0.3-1.6-0.7-1.7-0.8-3.9c-0.1-1.6-0.4-2.9-0.8-4.2l-1-14.4c0-2,0.5-2.7,0.6-4.4c0.1-2-0.2-3.4,0.3-5c0.6-2.1,0.7-4.9,1.2-6.8   c0.8-3,0.5-4.3,0.6-7.4c0.1-1.8,0.8-2.8,0.9-4.4c0.2-3.5,0-1.5,0.8-4.6c0.3-1.2,0.4-3.5,0.4-4.9c0-5.9-0.2-4.4,0.7-9.7   c0.2-1.2,0-3.4,0.3-5.1l0.7-4.6c0.2-2.9-0.4-6.2,0.4-9.1c0.6-2,0.4-2.3,0.7-4.7c0.3-2.4,0.5-1.2,0.5-4.8c0.1-3.1,3.3-13.3,3.3-17.7   c0-2.6-0.1-2.8,0.6-4.8c0.5-1.6,0.1-3.1,0.6-4.7c0.7-2.2,0.3-2.2,0.6-4.7c0.4-2.9,1.5-5.7,1.7-8.6c0.1-1.3,0.3-3.5,0.6-4.7   c0.6-2.1,0.4-5.1,0.6-7.4l0.7-4.6c0.2-0.8,0.5-1.3,0.7-2c0.5-1.6,0.2-3.2,0.6-4.7c0.2-0.7,0.4-1.4,0.6-2.1c1.1-6.2,3.3-12.6,5-18.6   c0.5-1.7,1-2.2,1.6-3.7l3.7-12.3c0.2-0.9,0.2-1.3,0.5-2.2c0.2-0.6,0.4-1.1,0.7-1.9c0.9-2.6,2.3-4.8,3-7.4c0.8-2.8,2.4-4.5,3.5-7.2   l1.5-3.9c3.3-7.9,4.7-10.5,8.4-17.9c0.6-1.3,1.2-2.2,1.9-3.4c1.3-2.5,2-4.8,3.6-7.1c0.7-1,1.4-2.4,2-3.4l7.2-14.1   c1.2-2.5,2.2-4.7,3.6-7c0.8-1.3,0.9-2.5,1.6-3.7l9.4-17c3.4-5.7,5.7-11.9,9.2-17.5c4.3-7,5.6-10.6,9.2-17.1   c0.7-1.2,1.4-2.1,2.2-3.2l8.4-12.6c0.8-1.2,1.1-2.3,1.9-3.4c0.7-1.1,1.4-2.1,2.1-3.2c1.1-1.7,3-5,4.4-6.3c1.9-1.8,3-3.9,4.9-5.8   c1-1,1.7-1.7,2.7-2.7c2.3-2.3,4.2-4.8,6.5-6.8c1.9-1.7,4.4-5.6,5.5-7.8c1.6-3.2,5.1-5.7,7.3-8.7c1.6-2.2,3.4-3.3,5-5.4   c1.6-2.1,3-4,4.8-5.8c2.3-2.3,3.3-5.6,4.8-8.5c3.2-6.1,7.1-12.3,11.4-17.7c5.2-6.6,1.1-3,9.7-11.6c1.9-1.9,3.4-3.3,5.5-4.8   c1-0.7,2.2-1.2,3.5-1.9l10.3-5.7c6.7-4,12.5-6,20.6-6c1.8,0,3.2-0.5,4.7-0.6c3.4-0.3,6.9,0,10.2-0.5c3.8-0.6,11.4-0.5,15.2-0.1   c8.1,0.9,16.3,1,24.3,2.4c0.5,0.1,1.7,0.4,2.2,0.4c2.4,0.3,4.6,0.7,6.8,1.5c8.3,3,13.4,6,20.4,11.6c1.1,0.9,1.8,1.4,3,2.3   c2.5,1.7,6.2,6,7.9,8.4c0.6,1,1.2,2.6,2.7,2.6c1.1,0,8.5-5.2,9.7-6.2c2-1.7,4.5-2.7,6.4-4.6c3.7-3.5,2.4-3.4,8.3-7.7   c2.2-1.6,4.3-2.7,6.8-3.8C348.1,14.6,352.9,13.3,357.5,13.3z"></path>
	<g>
		<path class="st1" d="M432.1,354.1h-6.8c-1.9,0-3.8-0.4-5-0.4c-3.4,0.1-7.3,0.1-10.6,0.6c-6.3,0.9-13.6-0.2-19.8-0.9l-12.8-1.4    c-3.7,0-9.6-0.5-12.8-1.4c-1.8-0.5-4.3-0.6-6.2-1c-3.8-0.7-7.7-2.1-11.4-2.8c-2.5-0.5-3.3-0.8-5.6-1.4l-12.1-2.1    c-4.4-0.3-9.1-0.5-13.2-0.9c-5-0.6-9.6,0.2-14.8,0.2l-11.5-1.3c-1.3-0.3-2.2-0.7-3.4-1c-2.1-0.6-5.3-0.8-7.4-1.1    c-2.1-0.3-4.9-0.9-7.3-1.4c-1.3-0.2-2.1-0.7-3.1-1.1c-1.2-0.4-2.3-0.6-3.4-1c-1-0.3-1.8-0.8-3-1.2c-1.3-0.5-1.9-1-3-1.4    c-2.3-0.8-4.1-1.2-6.6-2l-9.5-3.5c-3.6-1.3-5.8-2.6-9.7-3.3c-4.5-0.8-9.2-2.2-13.6-3.6c-6.9-2.2-15.6-11.2-18.9-11.3    c-1.4,0-2.4,0.7-2.4,2.1c-0.1,3.9,15.6,13.9,19.7,14.7l20.1,5.7c1.7,0.7,4.4,2.1,6.2,2.7c3.1,1,10.8,3,13,4.2    c2,1.2,10.3,4.2,13,4.5c2.3,0.3,4.9,1.2,6.9,1.6c3,0.5,4.6,0.2,7.3,1.3c1.5,0.6,13,2.3,15.1,2.3c9.6,0,18.4-0.4,28,0.5    c2.7,0.2,4,0.8,6.1,1.1c2.3,0.3,4.3,0.4,6.3,1.1l17.7,4.3c8.1,1,9.1,2,19.5,2.5c2.6,0.1,3.8,0.6,6.3,0.7c2.3,0.1,4.7,0.1,6.9,0.5    c18,2.6,31.5-0.2,48.8,1.5c7.4,0.7,15,0,22.5-0.2c4.9-0.1,9.2-1.1,14.2-1c4.4,0,11.1-0.1,15-1.1c1.4-0.4,1.9-0.3,3.1-0.8    c2.8-1.1,5.8-2.4,7.9-4.2l4.1-3.9c1.1-1.2,4.8-4.7,6.4-5.5c1.7-0.8,1.4-0.6,2.5-1.6c0.7-0.6,1.4-1.1,2.2-1.7    c2.2-1.9,2.4-3.1,3.9,0.4c1.3,3.1,2.9,1.8,2,9.6c-0.2,1.6-1.7,5.8-2.7,6.8l-1,1.1c-0.7,0.7-0.5,0.2-1.1,1l-2.4,3.6    c-0.6,0.8-1.2,1-2.1,1.8c-1.2,1.1-0.7,0.9-1.6,2.3c-1.5,2.3-4.5,7.1-6.7,8.7c-0.7,0.5-1.7,1.1-2.5,1.6c-1.6,1.1-2.8,2.3-4.4,3.3    c-1.6,1-3.2,1.8-4.9,2.8c-1.3,0.8-4,1.5-5.7,2.1c-9.1,2.7-9.4,2.6-20.6,1.6l-16.8-0.8c-3.5,0-6.6,0.8-10.1,0.9    c-14.2,0.5-28.2,2-42.4,1.8l-8.6-0.3c-2.9,0-4.8-0.6-7.7-0.7c-11-0.7-22.1-0.4-33.2-0.6c-3.1-0.1-4.4-0.7-7.1-1.3    c-3.2-0.8-1.8-1.2-6.7-1.9c-2.5-0.4-4.2-1.2-7.2-1.4c-2.6-0.2-5.3,0-7.8-0.4c-2.9-0.5-4.1-1.1-7.3-1.3c-2.3-0.1-5.1-0.4-7.3-1    c-4.6-1.2-9.4-1.2-13.8-3.1c-2-0.9-4.1-1.6-6.1-2.5c-2.2-1-3.7-1.7-5.7-2.9c-3.1-1.8-10.9-4.6-14.2-6.8l-8.5-4.2    c-1.8-0.7-4.5-1.5-6.2-2.4l-11.1-5.8c-0.9-0.5-2-0.8-2.9-1.3c-1.1-0.6-2-0.9-3-1.4c-3.5-1.9-13.2-8.7-15.8-9.6    c-3.8-1.2-1,0.3-6.2-2.4c-1.8-1-3.6-2.2-5.6-3l-4.1-2.2c-0.6-0.4-0.5-0.4-1.2-0.8c-1.8-1-3.9-1.6-5.3-3.3c-2.7-3-6.9-4.9-9.9-7.3    c-2.4-1.8-4.7-3.6-5.9-6.5c-2.1-5-2.2-3-1.1-10.3c0.4-2.5,1.5-3.7,2.9-5.7c2.9-4,15.9,1.3,20.7,1.7c1.4,0.1,2.1,0.4,3.2,0.9    l12.8,4.1c1.2,0.3,2.5,0.5,3.6,0.8c1.9,0.6,4.7,1.2,6.4,2c1.8,0.8,4.4,1.9,6.2,2.4c3.6,1,10.2,3,13.5,3.4c2.7,0.3,4.7,0.8,7.2,1.4    c2.2,0.5,5.2,0.5,7.6,0.9c1.4,0.3,1.8,0.6,3.3,0.9c1.3,0.2,2.5,0.2,3.8,0.4c2.5,0.3,4.3,1.1,7.1,1.5c2.4,0.4,4,1.4,6.6,1.7    l13.8,3.1c2.1,0.6,12.1,1.9,14.4,2.8c1.4,0.5,1.5,0.6,3.3,0.9c1.3,0.2,2.5,0.4,3.8,0.6c4.9,0.6,9.9,1.6,15.1,1.9l14.9,2.2    c4.8,0.9,10.3,0.6,15,1.9c5.1,1.5,14,0.8,19.8,0.8c2.6,0,4.9,0.3,7.4,0.4c2.6,0.2,4.5,0.8,7.1,0.8c7.3,0.1,14.1,0.6,21.3,1.5    c2.4,0.3,4.3,0.3,6.8,0.4c4.6,0.1,8.8,1.1,13.3,1.1c2.4,0,4.7,0,7.1,0c4.9,0,13.9-1.2,20.7-1.2c2.7,0,5.4,0.1,8-0.2l18.5-4    l5.2-2.1c4-1.9,7.8-5.1,10.9-8.1c1-0.9,0.9-0.4,2-1.8c2.1-2.8,7.6-9.8,9.5-12.8c2.1-3.4,6.4-11.7,7.4-15.4c0.9-3,1.8-5.9,2.3-9    l0.6-2.9c0-0.1,0.1-0.2,0.1-0.2c1.2,0.3,2,2.2,2.7,3.3c0.6,0.9,1.7,2.8,2.1,3.8c1.6,4.4,2.7,4,3.6,8.3c1.1,5.6-3.2,12.6-6.9,16.6    c-0.6,0.6-0.9,1-1.4,1.6c-0.9,1.2-0.7,0.6-1.6,1.4l-3,3c-3.9,3.7-6.9,9.9-10.6,13.1c-1.2,1-1.8,1.9-3,3c-0.8,0.7-2.6,2.2-3.5,2.8    c-0.6,0.4-1.2,0.7-1.8,1.1l-4.9,4c-1.2,1-1.8,2-2.9,3c-1.1,1-2.1,1.8-3.1,2.8c-1,1-2.6,1.4-3.9,2c-0.7,0.4-3.8,1.3-4.6,1.4    c-8.2,1.4-23.8,0.6-33.8,2.2C447.2,356.2,437.1,354.1,432.1,354.1z"></path>
		<path class="st0" d="M456.4,89c-1.3-0.3-0.2-0.3-1.5-1.1c-0.9-0.5-1.1-0.2-2-0.7l-3.5-1.8c-1.6-0.9-2.4-0.9-3.8-1.6    c-2.8-1.4-0.1-0.5-3.9-1.4c-5.4-1.2-4.9-1.5-8.3-2.3c-10.1-2.5-16.1-4.4-27.6-4.5c-3.6-0.1-6.8-0.4-10.4-0.4    c-1.6,0-3.1,0.4-4.7,0.5c-1.8,0.1-3.6,0.1-5.3,0.3c-2.8,0.4-6,1.2-9.2,1.4l-8.9,1.9c-1,0.3-2.5,1-3.9,1.4c-1,0.3-1.1,0.5-1.8,0.9    c-0.8,0.4-1.3,0.3-2.2,0.5c-2.8,0.5-10.9,4-13,1.9c-6.3-6.3-14.7-10.8-22.5-15.3c0-3.2-1.2-12.1-2.4-14.3    c-0.9-1.6-1.8-3.7-2.5-5.7c-1-2.6-2.6-3.9-2.8-5.8c0.9-1.1,8.4-5.7,8.7-6c1.1-1.1,0.3-0.9,1.9-1.6c6.1-2.9,6.7-5.6,10.3-8.4    c0.6-0.5,1.5-1,2-1.6c0.6-0.7,1.3-1.4,1.9-1.9c1.2-0.9,8.8-4.1,10.4-4.3c2.5-0.3,1.2-0.4,2.9-0.7c1.2-0.2,2.3-0.3,3.5-0.3    l14.8,0.1c4.8,0.5,18.7,0.7,20.6,1.5c4.1,1.7,10.8,5.3,12.6,6c2.2,0.9,1,0.4,2.3,1.5l5.1,2.3c2.2,0.9,7,4,8.9,5.9    c4.6,4.5,3.1,2.6,6.8,8l7,9.6c0.9,0.7,0.1-0.5,0.8,0.9c1.9,3.6,5,7.9,7.1,11.6c1,1.8,2,2.8,2.8,4.6c0.6,1.5,1.7,3.4,2.6,4.8    c0.7,1.2,1,0.8,3,4.4c1.3,2.3,1,1.1,2.7,4.7c0.5,1.2,0.5,1.8,1.2,2.7C456.9,87.7,457.5,87.5,456.4,89L456.4,89z M482.2,472.3    c-0.8-1-0.3-0.7,0.2-1.3c1.2-1.2,3.2-5.9,3.5-7.5c0.4-2.5,0.8-1,2.3-2.1c0.8-0.6,1.2-2.3,0.9-3.3c-0.4-1.2-6.6-4.9-8-5.4    c-5.2-2.2-17.4-4.6-22.7-2.1c-1.4,0.6-1.9,0.5-3.2,1.3l-5.3,3.6c-2.3,1.6-5.9,5.4-9.8,7.9l-2.6,1.9c-3.6,2.2-6.8,5.3-10.6,7.2    c-1.1,0.5-2,0.8-3.1,1.3c-4.9,2.5-14.7,1.3-19.4-0.1c-1.4-0.4-1.8-0.9-3.2-1.3c-2.5-0.7-3.5-2.2-4.4-4.5c-0.4-0.9-1-2-1.1-3.1    c-0.2-1.3-0.2-3,0.1-4.2c0.3-1.4,0.9-2.1,1.3-3.2c1.1-3.5,1.5-2.6,4.3-4.5l5.7-3.2c1.9-0.7,3.2,0.8,4.8,1.5l2.8,1.6    c1.4,0.8,2.6,1.6,3.6,2.9c0.8,1,1.2,1.3,1.9,2.6c2.2,3.7-6,8-7.1,9.6c-1.6,2.4,0.8,5.3,3.6,4.2c0.4-0.2,2.1-1.5,2.6-1.9l2.4-2.1    c2.3-2.5,4.6-5.3,4.6-8.9c0-1.7-1.1-3.7-2-5l-3-3.6c-0.8-1-0.4-0.3-1.3-1l-6.6-4.3c0.8-1.1,1.5-1.2,2.6-2c1.2-0.9,2.2-2.6,3.4-3.4    c2.4-1.6,1.5-1.3,3.4-3.4c1-1.1,1.3-1.3,2.5-2.2c1.7-1.2,3.4-2.7,4.6-4.3c1.5-1.9,5.5-4.5,7.6-6c3-2.2,5.1-3.2,8.1-5.8    c1.6-1.4,4.1-2,6.1-2.8c7.8-2.9,7.3-5.2,17.8-5.3c2.8,0,4.7,0.7,6.8,2.6c1,0.9,1.6,1,2.5,1.9c2.8,2.8,6.7,6.2,10,8.4    c2.1,1.4,2.7,3.3,3.8,5.4c0.7,1.3,2.3,2.9,3.8,5.1l2.1,2.4c1.2,1.3,3,1.8,4.4,2.7c2.1,1.3,3.1,1.3,4.5,2.3    c3.7,2.6,7.9,3.9,11.5,6.5l13.3,9.5c1.8,1.2,3.7,2.6,5,4.1c2.2,2.4,4.7,4.3,7,6.6c2.3,2.3,3.9,5.3,6,7.6c2,2.2,4.6,7.3,7,9    c1.7,1.2,0.6,1.1,1.9,2.5l3.4,3.4c2.2,2.6,1.8,2.5,3,4.1c0.7,0.9,0.3,0.2,1,1c1.8,2.2,5.6,8.7,5.9,12.3c2,1.3,0.5-0.6,1.8,2.2    c3.2,6.9,3.4,4.9,4.9,7.3c1.5,2.4,2.7,5.3,4.3,7.8l7.6,16.7c1.6,3.5,1.1,2.8,1.7,6.3c0.6,3.7,2.9,4.7,1.6,10    c-0.4,1.5-0.7,0.9-1.7,2.4c-2.9,4.1-3,2.4-5.5,4.5c-1.2,1-0.5,1.1-1.9,2l-4,1.9c-2.1,0.9-3.2,2.6-4.7,3.2l-6.9,3.3    c-1.8,0.9-1.1,1.5-3.9,1.9c-2.8,0.4-3.5,1.7-6.2,1.8l-0.1,0.4c0,0,0,0.1-0.1,0.2l-0.1,0.6c-2.1-0.2-1.1-0.4-3.4,0.2    c-1.2,0.3-2.3,0.3-3.6,0.6c-4.2,1.1-8.4,2.1-12.6,3.7c-1.1,0.4-5.5,1-6.8,1.1c-3.4,0.4-4.1-0.3-7.6,0.7    c-1.6,0.5-14.4,0.4-15.8-0.1c-1.7-0.6-1.2-0.6-3.5-0.6l-16.6-0.3c-3.4-0.1-10.9,0.6-13.6-0.5c-1.1-0.5-11.3-1.1-13-1.6    c-1.3-0.3-3.3-0.2-4.8-0.3c-2.6-0.1-1.7-0.6-3.8-0.8c-3.5-0.4-5.3-0.6-8.3-1.5c-3-0.9-7.9-2.6-10.6-4.2l-8.9-5.6    c-1.2-1.2-3-1.9-4.5-2.9c-0.8-0.6-0.4-0.6-1.2-1.2c-0.6-0.5-1-0.5-1.6-1.1L403,555c-1-0.6-2.1-1.7-2.9-2.1l-3.1-1.6    c-1.3-0.8-0.9-0.8-1.7-2.1c-0.7-1.1-1-2.7-1.7-4.2c-4.5-9.5-2.9-17.9-2.9-27.9c0-5-0.5-4.3-0.8-7.7c-0.2-2.3-1.6-4-2.5-5.9    c-0.8-1.5-3.5-4.9-4.8-6.5c-0.8-1.1-1.3-2.5-1.9-3.7c-1-2.1-3.1-4.8-4.6-6.4c-2.8-3-5.5-5-8.5-8.4c-2.7-3.1-5.1-6.7-6.4-10.4    c-1-2.9-0.9-6.6,0.6-8.9c0.3-0.4,2.5-2.5,2.9-2.7c4.5-3,5.7-5,11.7-5.1c2.7,0,2.4,0.1,4.5,1c6,2.5,2.4,0.2,6.4,4.8    c1,1.1,1.1,0.8,1.9,2.2c2,3.8-0.5,10.6,7.2,16.2c5.2,3.8,7.2,3.1,10.3,4c0.8,0.2,0.7,0.5,2,0.7c1.7,0.2,3.2,0,5,0.4    c0.3,0.7,0.6,2.3,0.9,3.2c0.3,1.3,0.8,1.5,1.1,2.7c1.1,4.3,0.7,9.9,1.6,14.1c1.1,5.3,5.1,11.1,9,14.5c0.9,0.8,1.4,1.2,2.1,2    c1.8,2.2,4.2,3.5,6.2,5.3l7.8,6.2c2.5,2,4.6,4.5,6.9,6.8c1.3,1.3,5.4,3.7,7,4.8c3.4,2.3,8.3,2.9,12.3,3.5c3.7,0.6,5.4-0.5,7-0.6    c2.1,3.7,0.5,5.7,4.2,9.7c1.1,1.2,1.6,2.2,4.1,3.1c1.1,0.4,1.5,0.8,2.5,1c5,1,10.5,1.4,15.4,1.8c3.5,0.3,6.2-0.2,9.3-1.3    c0.8-0.3,1.4-0.7,2-0.9c0.5,0.6,1.2,3.6,1.6,4.9c0.5,1.7,3,4.4,4.5,5c6,2.4,0.4,0.8,7.7,1.8c3.8,0.5,7.5-0.2,10.8-1.4    c7.1-2.6,7.4-6.9,12.1-10.1c0.4-0.3,0.5-0.3,0.9-0.6l3.4-4.6c0.6-0.8,0.8-0.8,1.5-1.8c0.6-0.8,0.8-1,1.3-1.7l2.2-2.8    c0.3-0.5,0.3-0.4,0.7-0.8c2.6-2.7,4.7-5.5,7.5-8.2c0.8-0.8,0.7-0.9,1.6-1.3c0-2.1-0.1-3.4-1.7-4c-3.4-1.3-6.9,4.3-8.6,6.7    c-1.4,2-3.5,3.3-5,5.4c-0.7,1.1-0.5,0.4-1.3,1.4l-4.2,5.9c-0.4,0.5-0.8,0.8-1.3,1.3c-0.8,0.9-1.5,1.8-2.4,2.7    c-0.9,0.9-2.1,1.6-2.8,2.5c-0.8,1-1.3,2-2.3,2.7c-1.9,1.3-4.2,2.5-7.2,3.1c-2.2,0.4-7.4,0.2-9.2-0.7c-4.4-2.1-2.4-2.5-4-6.3    c-1.9-4.4-1.7-3.9,0.5-7.5c0.9-1.5,1.3-1.5,2.7-2.6c0.7-0.6,0.7-0.7,1.4-1.3c2.1-1.6,10.8-10.9,11.3-11.6c2.3-3.5,2.6-2.9,4.8-5.3    c0.9-1,1.6-1.8,2.5-2.8c1-1,1.4-1.6,2.5-2.5c1-0.8,1.5-2.1,0.9-3.9c-0.5-1.5-1.7-1.8-3.5-1.5l-8,8.2c-1.4,1.1-2.1,2.1-3.2,3.6    c-1.6,2.2-4.5,4.9-6.5,7.1l-4.4,4.7c-1.7,1.9-2.4,0.7-6.8,7.1c-0.7,1-0.8,1.9-1.6,2.9c-2.8,3.6-9.2,2.1-13.2,2    c-1.6,0-3.2,0.1-4.8-0.1c-3.7-0.4-0.9-0.9-8.2-1.4l-2.1-3.2c-0.6-1.2-0.8-2.4-1.2-3.8c-0.7-2.4-0.2-4.2,0.9-6.2    c1.4-2.7,2.4-6,3.8-8.6l6.4-9c1.7-1.7,2.7-4.3,3.9-6.1c1.2-1.9,4.8-4.6,6.7-6.1c2.2-1.7,5.6-3.4,7.2-5.2c2.8-3.2-0.2-6.5-3.2-4.6    c-0.4,0.3-0.8,0.7-1.4,1.2l-7.4,5c-2.2,1.5-4.6,4.1-6.5,6.3c-1.9,2.1-2.3,4.4-5,7.5c-0.8,0.9-1.4,2.2-2,3c-1.5,2.1-2.7,3.2-4.1,6    c-0.4,0.9-0.7,1-1,1.6c-0.3,0.7-0.2,1.2-0.5,1.9c-0.4,1-1.1,2-1.7,3.4c-0.5,1.2-1.1,2.4-1.6,3.4c-2.4,0.1-4.1,0.9-6.1,0.8    c-1.9-0.1-3.9-0.7-6-1c-4-0.6-6.8-3.2-9.4-4.8c-2.4-1.5-3.6-3.2-5.5-5.1c-0.6-0.6-1-1.3-1.6-2c-2.2-2.6-4.1-5-5.2-9    c-0.7-2.6,0.1-4,1.2-5.7c0.9-1.3,1.6-2.9,2.7-4.4c1.1-1.4,1.9-2.5,2.9-4.2c2.2-3.7,4.6-5.5,7.5-8.5c0.5-0.5,0.2-0.4,0.9-0.8    c1.6-1,3.3-1.3,5-2.2c0.7-0.4,1.6-0.8,2.4-1.2c1.2-0.5,3.1-1.6,4.5-2.4c3-1.7,6-3.9,9-5.2c6.4-2.9,4.2-2.7,6.5-4.1    c2.1-1.2,4.3-2.8,6-4.7c2.4-2.4,5.3-4.2,7.8-6.4c1.9-1.6,6.7-4.6,8-5.9c1.4-1.4,1.9-3.6,0-4.8c-2.3-1.4-4,0.5-5.1,1.5    c-1.3,1.1-2.8,1.8-4.2,2.9c-1,0.8-0.4,0.7-1.9,1.6c-0.8,0.5-1.2,0.8-2,1.6c-1,0.9-0.7,0.8-2,1.5c-2.2,1.2-3.7,3.4-5.7,5l-2,1.6    C483,472.6,482.7,472.6,482.2,472.3L482.2,472.3z M160.4,303.1c2.8,1,4.3-2.2,5.3-3.9c3.6-5.8,10.3-10.3,16.8-11.6    c5.6-1.1,10.4-2.3,16.5-2.4c1.7,0,3.1-0.3,4.7-0.3c1.2,0,3.7,0.4,4.7,0.2c2.5-0.6,2.4-4.1-0.1-5.6c-1.3-0.8-15.3,0.3-17.6,0.6    c-1.9,0.2-2.5,0.6-3.9,0.8c-5.7,0.9-13,2.8-17.5,6.3c-0.9,0.7-1.7,1.5-2.6,2.1C164.3,291.3,154.8,301.2,160.4,303.1L160.4,303.1z     M197.4,265.6c4.4-0.6,4.4-0.8,4.5-2.8c0.3-4.1-4.1-3-8.2-2.8c-2.9,0.1-5.6,0.7-8.4,1.1c-2.1,0.2-5.7,1.4-7.3,2.2    c-2.2,1.1-4.8,2-3.4,5.7c1.9,2.5,4.5,0.7,6.8-0.5C186.6,266,192.2,266.3,197.4,265.6L197.4,265.6z M446.6,247.3    c-3.7,0-5.5-0.7-8.4-1.4c-0.9-0.2-1.7-0.2-2.6-0.4c-2.4-0.6-16.6-5.1-18.7-6.4c-4.4-2.5-7.5,1.4-4.2,4.2c2.7,2.2,5.4,2.9,8.4,4.3    c3.7,1.8,6.6,4.3,7.7,4.8c2.5,1.2,0.7,0.2,3.8,2.4c6.9,4.9,7.1,7.4,12.2,12.9l4.7,4.8c2.7,2.6,0.9,0.8,2.8,3.4    c0.6,0.8,0.9,0.8,1.4,1.5c1.7,2.2,3.5,6.7,4.8,7.7c1.4,1.1,6.9,1.7,3.3-5.6c-0.6-1.1-0.4-1.1-1.1-2.2c-4.4-6.9-10-11.4-12.9-15.2    l-4.2-5.3c-1.4-1.8-4.3-4.1-4.4-4.5c8.6,0.5,14.2,1.3,22.6-0.4c1-0.2,2.2-0.9,3.1-1.4c1-0.6,1.6-1.5,1.2-3.3    c-0.7-3-4.3-1.4-6.2-0.9C455.7,247.5,450.9,247.2,446.6,247.3L446.6,247.3z M393.7,175.1c-2.5-10.7-4.1-9.6-10.4-16.8l-4.2-4.9    c-1.6-1.5-4.2-3.1-5.8-5.1c-3.3-4-9.3-9.6-14.2-11.3c-3.9-1.3-12.6-1.8-16.7-1.5c-2.9,0.2-5.9,0.4-8.9,0.3c-2-0.1-7-1.3-8,0.5    c0.5,1.1,5,2.4,6.3,2.9c2.3,0.8,4.4,1.8,6.8,2.7c3.2,1.1,6.3,2.9,8.9,5c1.3,1.1,1.5,0.9,2.7,2c3.1,3,6.7,6.1,9.3,9.3    c1,1.2,1.1,1.5,2.3,2.5c1,0.8,1.6,1.5,2.5,2.2c1.7,1.3,3.7,2.7,5.3,4.1c3.5,3.1,6,6,9.4,9.2l4.5,4.6c2.5,2.1,4.9,4.3,6.8,7.1    c0.7,1,1.4,1.7,2,2.8l1.6,3.1c1.7,4.4,2.7,4.7,3.3,10.8c0.3,2.5,1.4,6.7-0.7,8.1c-1,0.4-2.1,0.5-3.1,0c-0.9-0.6-0.5-0.1-0.9-1.6    c-0.2-0.8-0.3-1.5-0.3-2.4c-0.1-2.8-1.1-5.5-1.6-8.4c-0.2-1.3-1-2.3-1.6-3.4c-1.2-2.4-2.4-4.5-3.7-6.4c-1.7-2.3-5.4-5.5-7.7-7.7    l-2.6-2.5c-3.7-3.3-6-7-10.3-9.8c-6.5-4.3-10.3-9.4-15.7-14.8c-5.5-5.4-11.8-9-19.2-11.3l-7.2-2.8c-4.4-1.5-15.2-6.1-19.4-5.8    c-8.3,0.6-16.8-0.6-25,0.3c-2.8,0.3-6.1,1-9.2,1c-3.4,0-6.7,0-10.1,0c-4.5,0-15.6-1.5-19.4-0.4c-1.1,0.3-2.6,0.8-3.8,1.2    c-1.5,0.4-3.1,0.5-4.4,0.9c-5.3,1.8-10.1,3-14.5,5.6c-2.2,1.3-3.7,3.1-5.3,4.7c-1.8,1.7-3.4,3.1-5.2,5.1c-2.2,2.4-5.4,5-7.4,7.7    c-2.4,3.1-5.7,5.4-7,8.4c-0.9,2.1-1.2,6.7,0,8.4c6.7,0.5,8.1-3.1,11.3-7.3c6.8-9,2.5-3.7,8.8-10.2c2-2.1,5.9-4.3,8.4-5.9l10.3-4    c2.4-0.6,5.3-1.4,7.6-2.2c3.9-1.4,3.8-1,7.7-1.8c2.6-0.5,5-1,8-1.4c2.8-0.4,6.2-0.4,8.7-0.9c2.2-0.4,5.9-1,8.2-1.2l8.7-0.6    c3,0,5.9-0.3,9.2-0.3l8.3,0.8c3.3,0.4,5.3,0.5,8.3,1.6c1.2,0.4,2.6,0.6,3.8,0.9c1.2,0.4,2.1,1,3.2,1.6c2.7,1.4,5.7,2.1,8,3.9    c0.7,0.5,0.4,0.4,1.4,1c3.3,1.8,11.1,7.7,12.8,8.5c0.6,0.4,1,0.4,1.6,0.8c2.7,1.8,6.6,3.2,9.7,4.5c1.4,0.6,1.9,1.1,3.1,1.6    c4.3,1.6,9,3.9,12.6,6.6c1.1,0.9,1.6,1.3,2.6,2.1c0.6,0.5,2.2,1.6,2.6,2.1c1.6,1.8,3.3,3,4.7,4.8l3.6,6.1c1,2.3,1.7,4.5,2.8,6.8    l2,5.1c1.9,3.8,2.8,8.2,4.9,11.7c0.9,1.5,0.3,2.9,0.9,4.1c0.3,0.6,3.3,1.6,4.1,2.2c1.4,0.9,2.3,1.9,3.2,3c0.6,0.8,0.8,0.7,1.1,1.9    c0.7,2.4,1.1,6.1,0.3,8.3c-1.5,4.1-6.9,7.1-9.6,9.1c-5.1,3.9-9.2,4.1-13.5,8.1l-4.6,4.9c-2.1,2.5-4,3.9-6.2,6.3    c-1.1,1.1-1.8,2.3-2.8,3.4c-2.6,3.1-4.7,5-7.9,7.5c-0.8,0.6-1.3,0.8-1.9,1.3c-3.3,2.9-6.8,6-11,7.7l-8.8,3.7    c-1.7,0.5-2.7,0.5-5,1.3c-1.7,0.6-2.9,1.2-4.5,1.7c-1.8,0.6-3.3,0.7-4.9,1.4c-6.2,2.6-11.4,5-17.8,7.1c-3.8,1.3-7.3,0.7-11.6,0.9    c-1.6-2.6-1.3-2.8,0-5.5c2.1,0,5.2-0.1,7.2-0.3c2.4-0.3,4.8-1.2,6.9-2.2c0.3-0.1,1.1-0.4,1.3-0.5l5.2-2.1c1.4-0.5,1.5-0.7,2.7-1.2    c0.8-0.4,1.8-0.5,2.7-0.9c1.4-0.6,0.8-0.8,2.6-1.2c2.4-0.5,3.7-0.8,5.8-1.7c2-0.8,3.4-1.3,5.6-1.8c2.6-0.6,3.4-1.3,5.7-2    c3.1-1,5.1-2.6,7.4-3.5c1.9-0.8,2.7-2,4.3-3.1c1.4-1,2.6-2.5,4-3.4c1.9-1.1,4.8-3.3,6.2-5c1.6-1.9,0.8-1.5,3.3-4.1l3.6-3.8    c1.1-1.1,3.3-2.9,3.5-4c-0.4-0.2-7.8-0.4-9.8-0.8c-3.5-0.7-7.5-0.4-11.1-0.4c-3.8,0-7.5-0.3-10.9-0.3c-1.8,0-3.5-0.1-5.3-0.4    c-2-0.2-3.2-0.7-4.9-1c-3.5-0.6-6.9-0.6-10.5-0.8c-4.7-0.2-16.8-1.2-21.2-1.9l-10.1-1.5c-1.9-0.2-3.2,0-5.1-0.6    c-1.4-0.4-3-0.9-4.5-1.2c-3-0.7-5.4-2.3-8.5-3c-3.8-0.9-6.3-3-9.3-4.9c-2.3-1.5-3-2-4.9-4c-4-4.1-7.7-7.3-11.9-10.9    c-2.1-1.8-3.7-3.9-6.2-5.3c-1.2-0.7-2.5-1.2-3.3-2.4c-0.8-1.2-0.2-3.1,1.3-3.9c3-1.6,7.3,3.4,9,4.6c2.3,1.8,11.7,10.2,13.1,11.8    c0.8,0.9,0.9,1,1.7,1.8c1.6,1.7,1.9,1.8,4,3.1c8.1,5.1,8.3,3.7,14.4,6.6c5.9,2.8,11.9,2.1,18.1,3.2c8.3,1.6,17.2,2.3,25.5,2.6    c2.3,0.1,4.2,0.4,6.5,0.5c5,0.2,7.8,1.6,12.8,1.7c4.6,0.1,9.1,0.3,13.7,0c4.3-0.2,9.1,0.7,13.1,1.1c2.1,0.2,4.7,0.2,6.8,0    c1.9-0.2,4-1.2,5.5-1.7c1.7-0.7,3.3-1.4,4.9-2.2c5.4-2.6,8.5-4.7,12.8-8.6c0.9-0.9,0.9-0.5,1.1-2.3c0.5-4.1-3.4-6.4-4.3-6.2    c-1,0.6-0.8,1-2.2,1.8c-3,1.8-6.5,0.6-9.5,2l-13.9,5.3c-1.9,1.1-7.5,1.3-9.9,1.6c-5.1,0.6-9.7,0.5-14.6,0l-10.5-1    c-1.3-0.2-1.5-0.4-3.2-0.6c-4.2-0.4-8.9-1.6-13.1-2.4c-2.9-0.5-3.7-0.5-6.3-1.4c-0.9-0.3-2.3-0.4-3.1-0.8l-2.6-1.2    c-4.8-1.8-12.8-4.2-17.9-5.2c-2.1-0.4-3.9-1.3-5.8-2c-1.5-0.5-1.5-0.8-2.6-1.3l-13.6-5.7l-3.9-3.8c-1.4-1.3-2.8-2.2-4.2-3.5    c-1.6-1.5-2-2.3-4-3.7c-6.5-4.7-13.8-5.9-21.8-9c-3-1.1-7.4-3.4-10.4-5c-1.6-0.8-4-1.5-5.5-2.2c-2.6-1.1-3.1-1.9-4.9-3    c-4,1.2-10.4,3.4-13.3-0.7c-3.4-4.7-2.9-8.1-1.2-13.6c1-3.3,3.4-5.3,5.9-7.5c0.7-0.6,1.3-1.7,1.9-2.5l8.7-9.1    c2.5-2.8,6.5-6.3,9.2-8.6c4.2-3.6,7.2-3.9,12.2-5.6c6.8-2.4,3.4-1.4,10.3-3c1.7-0.4,2-0.6,3.3-1.1c2-0.7,14.8-0.3,17.4,0    c5.6,0.7,11.6,0.1,17.1-0.2c5.5-0.2,11.6-1,16.9-0.9c4.2,0.1,8.7,0.6,13,0.1c1.2-0.1,2.6-0.5,3.6-0.6c4.2-0.4,12.4,0.4,16.9,0.7    c5.5,0.4,11.9,0,17.5-0.3c4.3-0.2,2-1.1,7.8,0c2.1,0.4,5.9,0.4,8.2,0.6c5.6,0.6,9.2,2.6,12.5,5.3l4.7,4.2c1,1.1,3.1,4,4.6,4.1    c1.7-2.9-1.4-8.4-2.7-11.1l-2.6-4.8c-1-1.5-2.3-2.9-2.9-4.8c-0.8-2.9-2.2-3.1-4-7.5l-4.3-6.3c-2.2-3.2-3.6-5.9-6.4-8.7    c-1.3-1.3-2.6-2.6-3.9-3.8c-3-2.8-8.2-8.9-11.4-11.1l-9.1-6.3c-3-1.9-6.4-4-9.7-5.4c-3.2-1.4-1.8-1.3-6.1-1.6    c-2.2-0.1-5-0.1-7.1-0.4c-2.2-0.3-1.2-0.8-2.7-1c-10.8-1.3-21.5-1.4-32.3-2.2c-4.6-0.4-9.9,0.5-14.5,0.7c-2.4,0.1-4.4,0.7-6.8,0.9    c-5.4,0.3-10.3,1.9-15.5,3.3l-5.8,1.9c-2.6,0.8-5.4,2.5-7.5,4c-1.4,1-3,2.1-4.3,3.1c-1.6,1.3-2,2.3-4.2,3.5    c-2.3,1.3-5.3,4.8-8.1,7c-1.4,1.1-2.9,2.1-4.4,3c-1.8,1.2-4.9,1.3-5.3-1.1c-0.6-3.3,4.4-4.9,7.9-7.6c2.5-2,3.8-4.3,5.8-5.5    c0.9-0.5,1.4-1,2.3-1.6c2.6-1.8,4.5-4.2,8.5-6.6c2.2-1.4,1.9-1.4,4.7-2.7c9.7-4.5,20.4-5.6,30.9-7.3l14.4-0.8    c5.4,0.1,30.5,1.4,35.3,2.7c2.9,0.8,7.3,1.1,10.4,1.2c2.9,0.1,0.8-3.7,0.1-8.1c-0.5-3.1-3-7.5-4.6-10.5c-1.7-3.2-3.6-7.1-5.7-9.8    l-3.3-4.1c-2.5-2.6-9.5-8-12.7-10.1c-6.9-4.4-13.8-6.9-22.3-8.2c-4.4-0.7-9.4-0.6-13.8-1.4c-9.1-1.5-19.7-1.2-28.9-0.5    c-8.4,0.7-11.9,0.5-20.1,2.6c-3.2,0.8-2.9,0.8-5.3,2.4c-3,1.9-6.1,2.9-9.7,5.4c-5.5,3.7-5.6,1.3-13.3,9.5c-1.3,1.4-2.5,2.2-3.7,4    c-0.9,1.4-1.8,3.3-2.9,4.5c-1.9,2.1-8.5,11.3-9.4,13.7c-0.7,1.9-1.6,3.1-2.5,4.9c-0.9,1.9-1.9,3.3-2.7,5    c-2.4,5.1-6.3,8.8-10.1,12.7l-7.1,8c-1.8,1.9-1.8,2.5-3.2,4.5c-0.9,1.3-2,3.3-3.1,4.3c-3.7,3-0.4-0.7-3.7,3.9    c-1.2,1.7-2.4,2.6-3.7,4c-0.7,0.7-1.2,1.2-1.9,1.9c-0.7,0.6-1.5,1.1-2,1.8c-1.4,1.8-0.6,1.8-3.1,4.3c-1.2,1.2-2.4,2.6-3.2,4.5    c-0.9,2-1.8,2.5-3,4.3c-1.2,1.9-1.6,3.5-2.8,4.9c-1.1,1.4-2.1,2.7-3,4.4c-1.3,2.7-4.5,6.6-6.2,9.3l-4,7.3    c-0.6,1.5-0.8,1.3-1.5,2.4c-1,1.8-1.5,3.5-2.5,5.2c-0.5,0.8-0.9,1.4-1.3,2.2c-0.7,1.3-0.7,1.1-1.5,2.3c-1.8,2.7-3.6,7.1-4.9,10.2    c-1,2.4-4.3,7.3-5.7,9.7c-0.8,1.5-2.4,3.2-3,4.7c-0.6,1.2-0.1,1.3-1,2.5l-3.8,7.7c-1.4,3.8-3.9,6.4-5,10.4c-0.5,2-1.6,2.9-2.7,4.8    c-0.9,1.5-1.9,3.3-2.5,5.1c-0.9,2.7-2.9,4.9-4.2,7.4c-1.3,2.6-2.2,5.2-3.7,7.5l-5,10.1c-0.8,1.6-2,3.4-2.4,5.3    c-0.5,2.8-1.5,2.7-2.3,5.1c-1.8,5.3-2.5,5.1-3.6,8l-3.4,8.2c-0.2,0.7-0.8,2-1,2.5c-0.3,1.1-0.1,2-0.7,3.2    c-1.1,2.6-1.2,2.8-1.8,5.9c-0.6,3-1.6,5.9-3,8.3c-0.6,1-2.2,7.2-2.5,8.7c-0.4,1.8-1.5,3.6-1.8,5.9c-0.3,2.3-0.5,1.5-0.9,2.9    c-0.2,0.8-0.4,2.4-0.5,3.3c-0.2,1.1-0.2,2.3-0.4,3.5c-0.2,1.4-0.7,1.9-0.9,2.9c-0.3,1.2,0,1.9-0.3,3.3c-1.1,5.4-0.3,3.9-0.8,6.9    c-0.2,1.3-0.5,1.9-0.8,3.1c-0.5,2.1,0.1,4.8-0.6,6.9c-1.8,5.6-1.2,8.5-1.6,9.6c-0.5,1.7-0.8,0.2-0.8,3c0,2.4-0.8,4-0.9,6.8    c0,5.9-0.4,3.2-1,6.8l-2,9.2c-0.3,2.3-0.3,4.9-0.8,6.9c-0.3,1.3,0,2.3-0.3,3.6c-1.2,4.6-0.2,9.7-1.2,14.2    c-0.5,2.3-0.1,4.7-0.7,6.7c-1.5,5,0,10.7-0.9,14.5c-0.4,1.5-0.8,0.6-0.8,3c0,1.6,0,2.1-0.4,3.5c-0.8,2.9-0.1,4.2-0.5,6.9    c-0.2,1.3-0.6,1.8-0.8,3.1c-0.2,1.3,0,2.3-0.3,3.6c-1.5,6-0.5,1.5-0.8,6c-0.2,3.8-2.4,8.9-0.4,13.1l1.3,10.3    c0,2.2,0.4,1.5,0.8,3.1c0.4,1.1,0.1,2.3,0.3,3.5c0.5,3,1.4,6,2.5,8.8c0.5,1.2,1.3,5.6,1.6,6.1c0.6,1.1,0.7,0.7,1.2,2.3    c0.4,1.4,0.5,1.7,1.1,2.7c1.4,2.5,2.2,5.6,3,8.3l4,7.6c1,1.5,2.3,3.1,3.4,4.3c1.4,1.4,2,3,3.2,4.5c1.3,1.7,2.3,2.4,3.5,3.9    c1.3,1.6,2.3,2.3,3.8,3.9c4.5,4.7,4,3.4,8.6,6.5l9.4,5.7c1.8,0.9,2.9,2.2,4.9,2.8c3.7,1,6.9,3.1,10.4,4.8l2.8,1    c2.9,0.9,4.4,3.2,10.2,5.2c1,0.4,2,0.4,3,0.8c3.6,1.6,7,2.7,11,4.1c2,0.7,4,0.8,6.1,1.6c1.5,0.6,4,0.5,6.3,1.4    c2.5,1,8.8,3.5,11.5,3.7c1.2,0.1,2.4-0.1,3.6,0c1.3,0.1,1.6,0.6,3,0.8c1.6,0.2,1.9-0.1,3.3,0.6c1.6,0.8,1.1,0.4,3.2,0.5    c1.5,0.1,1.6,0.4,2.9,0.7c1.3,0.3,2.4,0,3.6,0.2c1.5,0.2,1.4,0.7,3,0.9c1.2,0.1,2.6-0.1,3.8,0c1.3,0.1,1.6,0.6,3.1,0.8    c1.2,0.2,2.5,0.1,3.7,0.1c3.1,0,4,0.9,6.6,1.1c3.5,0.3,7.3-0.2,10.8,0.6c4.7,1,13.2-1.2,18,1c0.5,0.2,33.9,1.1,37.2-0.1    c3.2-1.1,10.3-1.3,13.7-1.4c2.8-0.1,3.3-1.2,6.5-1.2c3.4,0,7.5,0.5,10.7-0.5c2.9-0.9,44.8-0.3,49.5-0.4c2.4,0,2-0.9,6.2-1    c6.8,0,24.4,0.8,29.6-1.1c1.7-0.6,4.4-1,6.2-1.5c1.5-0.4,4.5-1.2,5.4-1.9c0.7-0.6,4.4-1.6,5.7-2.1c3.8-1.5,2.3-1.5,5.4-2    c1.5-0.2,1.6-0.6,2.6-1.2c0.9-0.5,1.8-0.4,2.9-1c5.4-2.6,3.3-0.7,8-7.3l3-4.4c3.3-4.4,5-3.4,4.1-10c-1-7.1,1.7-13.5-0.5-21    c-0.5-1.7-4.8-7.6-6.1-9.3c-1.2-1.5-1.5-3-2.7-4.8c-3.7-5.9-5.7-6.8-10.8-12c-1.3-1.3-2.4-2.2-3.6-3.8c-0.9-1.3-1.9-3.4-2.8-4.9    c-2-3.4-3.8-7.1-2.9-12c1-5.3,0.9-6.1,5.1-10.1c5.8-5.6,14.3-8.9,22.5-6.2c1.6,0.5,4.2,1.5,5.2,2.5c2.4,2.3,2.4,1.9,3.5,4.2    c2.2,0,1.5-0.7,2.6-2.2c1.7-2.2,6.8-4.5,9.5-6c2-1.1,4.4-2.9,6-4.3c0.9-0.8,1.8-1.4,2.8-2.2l5.4-5c2.5-2.9,5.2-4.5,7.9-7.5    c1.8-2,3.6-2.9,5.6-4.7c2.5-2.3,6.3-4.3,9.2-6.2c1.3-0.9,1.7-1.5,2.7-2.3c1.8-1.5,4.8-2.1,7.2-3.2c2.6-1.2,4.2-2.4,6.9-3.5    c5.2-2.1,12.6-2.6,17.9-1.2c1.8,0.5,4.9,2.9,6.4,4l8.3,7.1c3.8,3.6,3.2,2.2,6.4-1.1c0.7-0.7,1-1,1.6-1.6l1.5-2    c1.8-2.1,4.7-5.3,5.9-8c1.2-3,3.2-6.5,3.7-9.9c0.5-3.3,0.7-10-0.5-12.6c-1.4,0.1-1.5,0.4-2.3,1.2c-0.8,0.7-1.4,1-2.2,1.7    c-1.4,1.1-2.9,2.2-4.4,3c-0.9,0.5-1.2,0.8-2.2,1.4c-2.5,1.3-5.3,2.5-8.1,3.2c-7.8,1.8-1.9,1.8-12.8,2.1    c-8.8,0.2-19.9-1.6-28.4-0.9c-4.5,0.3-9.2,0.9-13.9,1c-9.6,0.2-18.6,1.4-28.4,1.4c-4.8,0-9.9,0.2-14.7-0.1c-2.6-0.2-4.4,0-6.9-0.5    c-1.6-0.3-5-0.5-6.8-0.5c-4.7-0.1-9.5-0.5-14.5-0.5c-5.7,0-16.4,0.8-21.5-0.9l-5.5-1.9c-6.4-2.3-15.3-1.5-19.7-2.8l-19.4-3.1    c-7-1.2-12.6-4.3-18.8-7c-0.9-0.4-1.5-1-2.4-1.4c-3.6-1.7-6.5-2.6-10.2-4.6c-5.4-3-9.4-5-15.3-7.2c-1-0.4-1.4-0.6-2.4-1.2    c-2.5-1.3-4-1.4-7.6-3.6c-1.9-1.2-2.8-1.5-5-2.4c-4.1-1.8-6.1-3.2-9.4-5.4c-1.4-0.9-3.1-1.9-4.6-2.8c-8.2-4.9-5.7-2.4-10.3-4.8    l-4.9-2.5c-1.1-0.5-1.1-0.9-2.2-1.3c-2.6-1.1-9.9-5-11.8-6.9c-3.5-3.6-12.2-7.9-15.5-12.4c-0.3-0.4-0.4-0.7-0.8-1.2    c-2.3-3-4.1-7.3-3.5-11.3c0.2-1.2,0.7-5.7,1-6.7c0.9-2.7,3.8-7.5,6.3-8.5c3-1.2,2.5-1.2,6.1-1.2c4.7-0.1,8.5,1,13,2    c1.9,0.4,3.7,1.2,5.9,1.5c2.5,0.3,19.6,5.8,22.9,6.7c4.3,1.2,6.1,2.5,11.2,3.9c3.9,1,7.8,2.1,11.8,3l12.8,2c2.2,0.2,3.8,1,6.2,1.3    c2.5,0.3,3.9,0.7,6.2,1.2c2,0.4,4.3,0.7,6.2,1.2c7.8,2.3,22.2,5,30.6,6.7c1.9,0.4,3.9,0.9,6.1,1.3c2.3,0.4,4.5,0.4,6.6,0.8    c2.1,0.4,4.2,0.6,6.5,0.9c2,0.3,5.3,0.1,7.1,0.6c8.2,2.1,17.7,2.2,26.1,3.8c9,1.7,19.5,0,28.7,1.2l13.4,1.4    c3.5,0.2,11.4-0.1,14.3,0.7c5.5,1.4,22.2,1.9,28.1,1.3l14-0.8c2.4-0.2,4.9,0,7.3-0.1c1.2,0,2.4-0.1,3.6-0.2l9.2-1.9    c5.4-1.9,6.9,0.3,16.7-5.9c2.2-1.4,4.2-3.2,6-4.9c2.1-1.9,3.3-3.9,5-6.2c2-2.8,4.5-5.7,6.2-8.6c0.6-1,0.5-1.6,1.1-2.4    c1-1.3,0.6-0.7,1.3-2.5l4.5-10.6c2.4-7.9,2.4-17.7-2.2-24.5c-0.7-1.1-0.5-1.4-1.1-2.4c-1-1.5-2-1.6-3.3-4.1    c-0.9-1.6-5.5-5.8-7.2-8c-0.6-0.8-0.9-1.4-2.3-1.4c-1.5,2.1-0.8,2-3.3,4.7c-0.6,0.7-0.6,0.8-1.2,1.5c-0.9,1.2-4.4,4-6,4.7    c-3.8,1.7-14.2,2.6-19.1,1.9c-3.8-0.6-3.4-5.2-0.1-5.7c1.1-0.2,3.9,0.1,5.2,0.1c4.6,0,11.8-0.6,14.8-4c0.7-0.8,1.4-2,2.4-2.9    c0.7-0.6,1-0.5,1-1.7c-1.4-0.2-4.1,0.5-5.8,0.6c-2.4,0.1-3.9-0.3-6.2-0.3c-2.3,0-4.1,0-6.3-0.2c-1.4-0.1-1.6,0.2-2.5-0.9    c-1.6-2-0.5-4.9,4-4.6c11,0.5,17.2,1.4,25.6-6.6c1.2-1.2,2.1-2.1,3.1-3.4l2.1-3c1.1-1.3,2.7-3.2,3.4-4.8c1.5-3.2,3.4-6.2,3.7-9.7    c0.1-1.4,1.2-4.4,0.5-5.6c-0.1-0.1-0.3-1.1-1.4,0.5c-0.5,0.7-0.6,1.2-1.2,1.8c-0.9,1-1.8,1.7-2.7,2.9c-2.1,3-4.6,4.8-6.9,7    c-2.9,2.7-9.1,6.1-12.7,7.2c-2.8,0.8-6.3,1.6-9.4,1.9c-3.4,0.4-6.7,1-9.8,1.5c-2.3,0.3-19.6,0.1-22.2-0.1    c-3.5-0.3-6.5-0.8-10.3-0.8c-9.5,0-22.5-0.3-30.8-3.3c-3.6-1.3-9.7-1.3-11.8-5.2c-0.7-1.3-1.5-2.6-1.4-4.4    c0.5-9.9,3.4-11.3,6.4-16.6c1-1.7,2.4-3,3.5-4.8c0.7-1.1,0.5-0.6,1.4-1.6c0.4-0.5,0.7-0.9,1.2-1.5c3.3-3.6,6.6-5.7,9.5-10.4    c1.4-2.4,3.2-4.5,5.1-6.4c1-1,1.8-2.1,2.7-2.9c3.6-2.9,13.3-9.4,16.8-11.3c3.6-2,4.6-2.5,8.7-2.9l10-1.2    c7.2-0.3,14.4-0.5,21.5,0.4l10.1,1.4c2.7,0.8,6,1.8,8.3,3c1.6,0.9,2.3,1.3,3.2,2.4c0.6,0.7,0.8,0.8,1.3,1.4c1.5,1.9,5.9,8,6.9,10    c0.8,1.7,0.3,0.6,1.3,1.7c1.1,1.3,0.9,3,2.8,3.1c0.6-1.9,0.6-11.5-0.1-14.1c-1.6-6.1,0.6-6.1-5.5-9.5c-7.1-4-11.2-5.2-19.6-5.4    c-1.7,0-2.8-0.5-4.2-0.7c-8.8-1.2-31.6-1.7-38.3-0.3c-8.2,1.7-14.6,4.1-21.5,8.7l-5.8,4.2c-0.6,0.5-0.8,0.4-1.4,1    c-1.3,1.2-2.8,2.2-4,3.7c-1.1,1.5-3.5,4.5-5.4,4.7c-3.2,0.3-4-3-2-5.2c1.7-1.8,3.2-3.5,4.9-5.2c1.7-1.7,3.5-2.8,5.4-4.6    c1.6-1.6,4.1-2.7,6-4.1c1.8-1.3,7.8-4.4,9.7-5.1c10.9-4,9.1-2.8,20.7-4.4c4.9-0.7,14.1-0.2,19.3,0c1.6,0.1,2.4,0.5,4.4,0.5    l9.8,0.6c2,0.3,1.2,0.5,4.2,0.6c6.7,0.1,10.4,1.3,16.7,3.6c2.5,0.9,7.4,4,9,6c1,1.2,1.1,2.1,2.9,2c-0.2-3.4-10-8.8-12-10.3    c-4.5-3.4-9.1-6.6-14.8-8c-2-0.5-17.4-2-20.8-2c-7.3,0-28.5,1.1-34.2,3.7c-1.2,0.6-1.5,0.6-2.8,1.1c-2.2,0.8-6.3,4.1-8.6,2.9    c-0.9-1-1.6-1.9-0.9-3.6c0.8-2,1.3-1.4,2.7-2.4c2-1.4,6-3,8.5-3.9c3-1.1,12.5-2.1,15.5-2.4c9.1-0.8,18.7-1.7,28.1-0.8    c1.9,0.2,7.5,1.1,9,1c0.8-1.7-0.6-2.8-1.4-4.1c-1.4-2.4-3.3-4.2-4.9-6.4c-1.1-1.5-2.1-3-3.7-4.6c-2.4-2.3-3.9-4.3-6.7-6.4    c-0.7-0.5-1.2-0.8-1.9-1.3c-0.9-0.7-0.6-0.7-1.9-1.4c-1.7-0.9-2.3-1.9-3.7-2.8l-9.6-6.7c-2-1.2-4.6-2-6.4-3.4    c-4.6-3.4-9.9-5.5-15.1-7.7c-1.1-0.4-1-0.7-2.2-1.1c-1.7-0.6-3.5-0.6-5.3-1.2c-13.8-4.3-24.2-6-39.5-6c-3.4,0-8.5,0.6-11.8,1.2    c-5.5,0.9-11.2,1.2-16.5,3c-4.1,1.4-5,2.1-9.9,3.2c-2.3,0.5-2,1-5.2,1.3c0,0.9,1.1,1.8,1.7,2.4c4.2,4.4,7,7.1,10.5,12.3    c0.4,0.7,0.5,0.5,0.9,1.1c0.4,0.5,0.5,1,0.8,1.5l5.2,8.4c0.7,1.3,2.4,3.7,3.4,5.8c1.2,2.7,2.1,3.4,3.5,5.7    c1.7,2.8,2.9,6.5,4.3,9.3c0.8,1.6,1.3,5.8,1.1,7.6c-0.3,2.7-2.5,4.5-0.2,6.6c1.6,1.5,2.8,3.3,4.3,4.9c3.3,3.7,5.8,5.4,8.4,10    c0.8,1.5,2.6,9.1,2.8,11.1c0.3,2.4,0.5,6.2,0.6,8.6c0,2.1,0.4,7.2-0.3,8.7c-1.1,2.5-4.7,1.7-5.3-1.1    C393.8,189.4,394.8,179.7,393.7,175.1L393.7,175.1z M343.5,172.4c-1.2,1-1.8,0.2-3.5,0.3c-1.3,0.1-2.7,0.5-4.2,0.5l-18.1,1.1    l-46.5-0.8c-5.4,0-10.4,1.1-15.4,1.2c-4.9,0.1-10.9,0.8-15.4,1.5c-6.6,1-15.7,1.4-21.6,3.6c-1.1,0.4-2,0.7-2.9,1.2    c-0.9,0.5-1.7,1.4-3.2,1.3l-5.9-2.5c-2.1-1.2-1.1-1.8,1.3-4.8c1.4-1.8,1.5-2.6,4.5-5.8l3.2-3.3c1.3-1.5,5.5-3.9,7.3-5.1    c1.6-1,13.3-4.9,15.7-5.6c6-1.9,14.3-3.2,21-3.9c1.3-0.1,2.8-0.1,3.9-0.3l15-1.7c9.7-0.3,9.7-0.3,19.9,0.7    c5.7,0.5,13.4,4.2,18.4,6.8l12.6,8.4c1.3,0.8,1.2,1.1,2.7,1.8l2.7,1.5c0.8,0.4,2,0.8,2.9,1.3C339,170.1,343,171.6,343.5,172.4    L343.5,172.4z M423.5,500.7c1.3-0.4,0.7-0.9,3.2-2.6c3.4-2.4,6.6-5.5,9.6-8.2c0.6-0.6,1.2-0.9,1.7-1.3c1.5-1.4,4.9-5.6,7.3-7.5    c5.3-4.2,2.5-1.8,6.1-5.7c1.1-1.2,1.9-1.8,3-2.9l3.1-2.8c1-0.9,1.9-2.1,2.9-3c2.1-2,3.3-3.7,5.2-6.6c2.8-4.2,5.1-5.1-1-5    c-5.3,0-8.4,3.2-11.9,5.8c-1.2,0.9-2.2,1.8-3.3,2.6l-6.7,5.1c-2.3,1.7-4.5,3.2-6.9,5c-3.1,2.3-7.7,5.3-11.6,6.2    c-6.2,1.5-4.9-0.5-3.1,5.5C422.5,489.5,421.3,497.9,423.5,500.7L423.5,500.7z M442.3,174.6c0.1-1.1,0.6-0.8,1.6-1.4    c0.9-0.5,1.2-0.9,2.1-1.5c0.9-0.6,1.5-0.9,2.2-1.4c4.4-2.7,6.2-4.7,12.2-5.2c9.4-0.8,16.5-1.9,25.9-0.7c4.8,0.6,12.8,1,17.5,3.2    c5,2.4,3.7,2.4,5.5,4.9c0.6,0.9,0.9,1.1,1.4,2.1l7.3,10.5c0.6,0.8,0.9,0.9,1.7,1.9c2.3,2.9,2.5,1.7,3.2,3.6c0.6,1.8,1.3,5.8-1.8,3    c-1.5-1.4-6.3-2.6-9.6-4.3c-3.2-1.7-6.3-2.7-9.5-4.5c-1.6-0.9-3.7-2.5-6.4-4c-4.2-2.3-8.8-3.5-13.7-3.8c-2.1-0.1-3.9-0.6-6.2-0.6    c-2.3,0-4.5-0.2-6.6-0.4C465.8,175.7,442.9,175,442.3,174.6z"></path>
		<path class="st2" d="M323,227c0.3-1.6-0.2-0.4,0.7-1.4c4.5-5.8,7.3-13.8,7.8-21.2c1.3-22.7-5.5-21-6.7-24.7c6.7,0.1,12.6-1,19.5-1    c1.6,0,2.8-0.3,4.7-0.3c2,0,3.3,0.3,5,0.4c4,0.2,3.1-0.2,7.1,3.1c3,2.5,7.8,7.7,9.1,11.3l8.8,22.1c2.8,6.9-2.6,5.4-3.8,5.5    c-3.2,0.4-5.2,1.7-7.9,2.5c-2.2,0.7-4.8,2.1-7.3,3c-7.1,2.6-19.9,2.8-28.1,2.1L323,227z"></path>
		<path class="st2" d="M483,224.8c0.3-1.2,1.9-2.7,2.8-4.1c0.9-1.5,1.5-3.2,2.3-4.8c3.6-7.3,2.4-16.3-0.5-23.8l-4.8-7.7    c-0.7-0.8-0.4-0.1-0.8-1.1c1.8-1.2,9.4,2.2,11,3c1.8,0.9,3.1,1.9,4.6,2.8c2.5,1.6,12.1,6.2,14.7,7.2c3.7,1.4,9.6,2.3,7.9,6.6    c-0.5,1.3-2.6,2.6-3.5,3.6c-3.9,4.5-5.7,7.4-11,11.2c-2.7,1.9-6.4,3.8-9.8,4.9C494.3,223.3,484.7,225.1,483,224.8z"></path>
		<path class="st2" d="M262.3,180.4c-0.4,1.7-0.9,0.7-3.5,4.1c-2.9,3.8-5.7,7.5-7,12.3c-0.3,1-0.2,2.3-0.8,3.1l-0.5,0    c-1.3-0.4-1.9-2.8-6-4.6c-2.7-1.2-4.9-2.1-7.9-3.4c-2.9-1.2-5.4-1.6-8.4-2.9l-6-2.4c-1.3-0.4-1.4-0.1-1.7-1.1    c1.5-1.1,17.1-3.2,20.1-3.3l20.5-2c0.1,0,0.2,0,0.3,0C262.3,180.2,261.8,180,262.3,180.4z"></path>
		<path class="st2" d="M310.6,191.9c2.3,1,3.9,0.4,6.2,3.4c2.3,3,0.5,10.8-4.4,13.1c-3.2,1.5-4.6,1.2-8.5,1.2    c-5.7,0-10.7-11.4-0.6-16.1C304.8,192.7,308.6,191,310.6,191.9z"></path>
		<path class="st2" d="M422.9,223c-1.4,0.3-4.8-1.2-6.4-1.6c-9-2.2-7.7-1.4-6.9-8.2c0.4-3.2,7.7-13.1,9.6-15c0.9-0.9,7.2-7.8,8.1-8    c0.2,0.8-0.8,2-1.3,3c-0.7,1.4-0.7,2.5-1.2,3.9c-0.8,2.7-1.7,2.4-2.4,7.8c-0.4,3.4-1.2,5.2-1.1,9.1C421.6,217.2,423,221,422.9,223    z"></path>
		<path class="st2" d="M469.7,196.3c2.2,0.8,5.3-0.6,8,3c0.6,0.9,0.6,1.7,0.7,3.2c0.1,2.6,0.3,4.8-1.2,6.4c-1.3,1.5-2.2,2.6-5.1,2.6    c-2.6,0-5.9,0.4-7.5-3.5C461.8,201.4,466.4,195.1,469.7,196.3z"></path>
		<path class="st2" d="M276.9,184.4c2.3,0.9,4.4,2.4,3.6,5.6c-0.3,1.2-2.6,3.8-6.3,3.3c-1.8-0.3-4.1-3-3.1-5.4    c0.6-1.5,0.8-1.8,2-2.7C274.3,184.3,275.4,183.9,276.9,184.4z"></path>
		<path class="st2" d="M280.5,201c4.8,2,1.1,11-4.3,7.9C270.7,205.6,276.2,199.3,280.5,201z"></path>
		<path class="st2" d="M443.2,189.3c6.6,1.8,3.1,9.9-1.6,8.9c-2-0.4-3.6-2.7-2.8-5.4C439.3,190.9,441.1,188.7,443.2,189.3z"></path>
		<path class="st2" d="M445.9,208.9c1.8,0.9,1.9,3.8,0.9,5.4c-2.2,3.7-8.7,0.9-6.6-3.9c0.4-1,0.8-1.5,1.9-1.7    C443.3,208.5,445,208.5,445.9,208.9z"></path>
		<path class="st3" d="M174.6,269c-1.4-3.6,1.3-4.5,3.4-5.7c1.5-0.8,5.2-2,7.3-2.2c2.8-0.3,5.5-0.9,8.4-1.1c4.1-0.2,8.5-1.3,8.2,2.8    c-0.1,2,0,2.2-4.5,2.8c-5.2,0.7-10.8,0.4-16,2.9C179.1,269.6,176.6,271.5,174.6,269L174.6,269z M480.4,461.1    c0-2.9-2.1-3.4-5.3-4.1c-1.4,2.1-5.9,8.9-7.5,10.6l-9.2,9.2c-2,2.4-3.8,4-6.1,6.3c-0.6,0.6-0.9,1-1.5,1.5    c-5.1,4.1-9.6,9.6-14.2,13.3c-1.2,1-2.1,1.8-3.4,2.8l-5.1,4.1c-0.9,0.7-1.1,0.7-1.7,1.6c0.4,0.6,1.4,1.9,2,2.4l4.6,4.6    c1.5,1.5,2.2,1,3.2,1c1.3-5.5,0.8-4,3.5-8.6c3.2-5.4,5.9-9.5,10.3-14c6.8-6.8,6-4.4,11-7l3.9-2.3c2.3-1.3,3.7-4.3,5.6-6.5    C473.1,472.9,480.4,465.6,480.4,461.1L480.4,461.1z M424.3,479.8c3.9-0.9,8.5-3.9,11.6-6.2c2.3-1.7,4.5-3.3,6.9-5l6.7-5.1    c1-0.9,2.1-1.8,3.3-2.6c3.5-2.6,6.7-5.7,11.9-5.8c6.1,0,3.8,0.8,1,5c-1.9,2.9-3.1,4.6-5.2,6.6c-1,0.9-1.9,2.1-2.9,3l-3.1,2.8    c-1.1,1.2-1.9,1.7-3,2.9c-3.6,4-0.8,1.5-6.1,5.7c-2.4,1.9-5.8,6-7.3,7.5c-0.5,0.4-1,0.7-1.7,1.3c-3,2.7-6.2,5.8-9.6,8.2    c-2.5,1.7-1.9,2.2-3.2,2.6c-2.1-2.8-1-11.2-2.2-15.4C419.5,479.3,418.1,481.3,424.3,479.8L424.3,479.8z M482.2,472.3    c-0.8-1-0.3-0.7,0.2-1.3c1.2-1.2,3.2-5.9,3.5-7.5c0.4-2.5,0.8-1,2.3-2.1c0.8-0.6,1.2-2.3,0.9-3.3c-0.4-1.2-6.6-4.9-8-5.4    c-5.2-2.2-17.4-4.6-22.7-2.1c-1.4,0.6-1.9,0.5-3.2,1.3l-5.3,3.6c-2.3,1.6-5.9,5.4-9.8,7.9l-2.6,1.9c-3.6,2.2-6.8,5.3-10.6,7.2    c-1.1,0.5-2,0.8-3.1,1.3c-4.9,2.5-14.7,1.3-19.4-0.1c-1.4-0.4-1.8-0.9-3.2-1.3c-2.5-0.7-3.5-2.2-4.4-4.5c-0.4-0.9-1-2-1.1-3.1    c-0.2-1.3-0.2-3,0.1-4.2c0.3-1.4,0.9-2.1,1.3-3.2c1.1-3.5,1.5-2.6,4.3-4.5l5.7-3.2c1.9-0.7,3.2,0.8,4.8,1.5l2.8,1.6    c1.4,0.8,2.6,1.6,3.6,2.9c0.8,1,1.2,1.3,1.9,2.6c2.2,3.7-6,8-7.1,9.6c-1.6,2.4,0.8,5.3,3.6,4.2c0.4-0.2,2.1-1.5,2.6-1.9l2.4-2.1    c2.3-2.5,4.6-5.3,4.6-8.9c0-1.7-1.1-3.7-2-5l-3-3.6c-0.8-1-0.4-0.3-1.3-1l-6.6-4.3c0.8-1.1,1.5-1.2,2.6-2c1.2-0.9,2.2-2.6,3.4-3.4    c2.4-1.6,1.5-1.3,3.4-3.4c1-1.1,1.3-1.3,2.5-2.2c1.7-1.2,3.4-2.7,4.6-4.3c1.5-1.9,5.5-4.5,7.6-6c3-2.2,5.1-3.2,8.1-5.8    c1.6-1.4,4.1-2,6.1-2.8c7.8-2.9,7.3-5.2,17.8-5.3c2.8,0,4.7,0.7,6.8,2.6c1,0.9,1.6,1,2.5,1.9c2.8,2.8,6.7,6.2,10,8.4    c2.1,1.4,2.7,3.3,3.8,5.4c0.7,1.3,2.3,2.9,3.8,5.1l2.1,2.4c1.2,1.3,3,1.8,4.4,2.7c2.1,1.3,3.1,1.3,4.5,2.3    c3.7,2.6,7.9,3.9,11.5,6.5l13.3,9.5c1.8,1.2,3.7,2.6,5,4.1c2.2,2.4,4.7,4.3,7,6.6c2.3,2.3,3.9,5.3,6,7.6c2,2.2,4.6,7.3,7,9    c1.7,1.2,0.6,1.1,1.9,2.5l3.4,3.4c2.2,2.6,1.8,2.5,3,4.1c0.7,0.9,0.3,0.2,1,1c1.8,2.2,5.6,8.7,5.9,12.3c2,1.3,0.5-0.6,1.8,2.2    c3.2,6.9,3.4,4.9,4.9,7.3c1.5,2.4,2.7,5.3,4.3,7.8l7.6,16.7c1.6,3.5,1.1,2.8,1.7,6.3c0.6,3.7,2.9,4.7,1.6,10    c-0.4,1.5-0.7,0.9-1.7,2.4c-2.9,4.1-3,2.4-5.5,4.5c-1.2,1-0.5,1.1-1.9,2l-4,1.9c-2.1,0.9-3.2,2.6-4.7,3.2l-6.9,3.3    c-1.8,0.9-1.1,1.5-3.9,1.9c-2.8,0.4-3.5,1.7-6.2,1.8l-0.1,0.4c0,0,0,0.1-0.1,0.2l-0.1,0.6c-2.1-0.2-1.1-0.4-3.4,0.2    c-1.2,0.3-2.3,0.3-3.6,0.6c-4.2,1.1-8.4,2.1-12.6,3.7c-1.1,0.4-5.5,1-6.8,1.1c-3.4,0.4-4.1-0.3-7.6,0.7    c-1.6,0.5-14.4,0.4-15.8-0.1c-1.7-0.6-1.2-0.6-3.5-0.6l-16.6-0.3c-3.4-0.1-10.9,0.6-13.6-0.5c-1.1-0.5-11.3-1.1-13-1.6    c-1.3-0.3-3.3-0.2-4.8-0.3c-2.6-0.1-1.7-0.6-3.8-0.8c-3.5-0.4-5.3-0.6-8.3-1.5c-3-0.9-7.9-2.6-10.6-4.2l-8.9-5.6    c-1.2-1.2-3-1.9-4.5-2.9c-0.8-0.6-0.4-0.6-1.2-1.2c-0.6-0.5-1-0.5-1.6-1.1L403,555c-1-0.6-2.1-1.7-2.9-2.1l-3.1-1.6    c-1.3-0.8-0.9-0.8-1.7-2.1c-0.7-1.1-1-2.7-1.7-4.2c-4.5-9.5-2.9-17.9-2.9-27.9c0-5-0.5-4.3-0.8-7.7c-0.2-2.3-1.6-4-2.5-5.9    c-0.8-1.5-3.5-4.9-4.8-6.5c-0.8-1.1-1.3-2.5-1.9-3.7c-1-2.1-3.1-4.8-4.6-6.4c-2.8-3-5.5-5-8.5-8.4c-2.7-3.1-5.1-6.7-6.4-10.4    c-1-2.9-0.9-6.6,0.6-8.9c0.3-0.4,2.5-2.5,2.9-2.7c4.5-3,5.7-5,11.7-5.1c2.7,0,2.4,0.1,4.5,1c6,2.5,2.4,0.2,6.4,4.8    c1,1.1,1.1,0.8,1.9,2.2c2,3.8-0.5,10.6,7.2,16.2c5.2,3.8,7.2,3.1,10.3,4c0.8,0.2,0.7,0.5,2,0.7c1.7,0.2,3.2,0,5,0.4    c0.3,0.7,0.6,2.3,0.9,3.2c0.3,1.3,0.8,1.5,1.1,2.7c1.1,4.3,0.7,9.9,1.6,14.1c1.1,5.3,5.1,11.1,9,14.5c0.9,0.8,1.4,1.2,2.1,2    c1.8,2.2,4.2,3.5,6.2,5.3l7.8,6.2c2.5,2,4.6,4.5,6.9,6.8c1.3,1.3,5.4,3.7,7,4.8c3.4,2.3,8.3,2.9,12.3,3.5c3.7,0.6,5.4-0.5,7-0.6    c2.1,3.7,0.5,5.7,4.2,9.7c1.1,1.2,1.6,2.2,4.1,3.1c1.1,0.4,1.5,0.8,2.5,1c5,1,10.5,1.4,15.4,1.8c3.5,0.3,6.2-0.2,9.3-1.3    c0.8-0.3,1.4-0.7,2-0.9c0.5,0.6,1.2,3.6,1.6,4.9c0.5,1.7,3,4.4,4.5,5c6,2.4,0.4,0.8,7.7,1.8c3.8,0.5,7.5-0.2,10.8-1.4    c7.1-2.6,7.4-6.9,12.1-10.1c0.4-0.3,0.5-0.3,0.9-0.6l3.4-4.6c0.6-0.8,0.8-0.8,1.5-1.8c0.6-0.8,0.8-1,1.3-1.7l2.2-2.8    c0.3-0.5,0.3-0.4,0.7-0.8c2.6-2.7,4.7-5.5,7.5-8.2c0.8-0.8,0.7-0.9,1.6-1.3c0-2.1-0.1-3.4-1.7-4c-3.4-1.3-6.9,4.3-8.6,6.7    c-1.4,2-3.5,3.3-5,5.4c-0.7,1.1-0.5,0.4-1.3,1.4l-4.2,5.9c-0.4,0.5-0.8,0.8-1.3,1.3c-0.8,0.9-1.5,1.8-2.4,2.7    c-0.9,0.9-2.1,1.6-2.8,2.5c-0.8,1-1.3,2-2.3,2.7c-1.9,1.3-4.2,2.5-7.2,3.1c-2.2,0.4-7.4,0.2-9.2-0.7c-4.4-2.1-2.4-2.5-4-6.3    c-1.9-4.4-1.7-3.9,0.5-7.5c0.9-1.5,1.3-1.5,2.7-2.6c0.7-0.6,0.7-0.7,1.4-1.3c2.1-1.6,10.8-10.9,11.3-11.6c2.3-3.5,2.6-2.9,4.8-5.3    c0.9-1,1.6-1.8,2.5-2.8c1-1,1.4-1.6,2.5-2.5c1-0.8,1.5-2.1,0.9-3.9c-0.5-1.5-1.7-1.8-3.5-1.5l-8,8.2c-1.4,1.1-2.1,2.1-3.2,3.6    c-1.6,2.2-4.5,4.9-6.5,7.1l-4.4,4.7c-1.7,1.9-2.4,0.7-6.8,7.1c-0.7,1-0.8,1.9-1.6,2.9c-2.8,3.6-9.2,2.1-13.2,2    c-1.6,0-3.2,0.1-4.8-0.1c-3.7-0.4-0.9-0.9-8.2-1.4l-2.1-3.2c-0.6-1.2-0.8-2.4-1.2-3.8c-0.7-2.4-0.2-4.2,0.9-6.2    c1.4-2.7,2.4-6,3.8-8.6l6.4-9c1.7-1.7,2.7-4.3,3.9-6.1c1.2-1.9,4.8-4.6,6.7-6.1c2.2-1.7,5.6-3.4,7.2-5.2c2.8-3.2-0.2-6.5-3.2-4.6    c-0.4,0.3-0.8,0.7-1.4,1.2l-7.4,5c-2.2,1.5-4.6,4.1-6.5,6.3c-1.9,2.1-2.3,4.4-5,7.5c-0.8,0.9-1.4,2.2-2,3c-1.5,2.1-2.7,3.2-4.1,6    c-0.4,0.9-0.7,1-1,1.6c-0.3,0.7-0.2,1.2-0.5,1.9c-0.4,1-1.1,2-1.7,3.4c-0.5,1.2-1.1,2.4-1.6,3.4c-2.4,0.1-4.1,0.9-6.1,0.8    c-1.9-0.1-3.9-0.7-6-1c-4-0.6-6.8-3.2-9.4-4.8c-2.4-1.5-3.6-3.2-5.5-5.1c-0.6-0.6-1-1.3-1.6-2c-2.2-2.6-4.1-5-5.2-9    c-0.7-2.6,0.1-4,1.2-5.7c0.9-1.3,1.6-2.9,2.7-4.4c1.1-1.4,1.9-2.5,2.9-4.2c2.2-3.7,4.6-5.5,7.5-8.5c0.5-0.5,0.2-0.4,0.9-0.8    c1.6-1,3.3-1.3,5-2.2c0.7-0.4,1.6-0.8,2.4-1.2c1.2-0.5,3.1-1.6,4.5-2.4c3-1.7,6-3.9,9-5.2c6.4-2.9,4.2-2.7,6.5-4.1    c2.1-1.2,4.3-2.8,6-4.7c2.4-2.4,5.3-4.2,7.8-6.4c1.9-1.6,6.7-4.6,8-5.9c1.4-1.4,1.9-3.6,0-4.8c-2.3-1.4-4,0.5-5.1,1.5    c-1.3,1.1-2.8,1.8-4.2,2.9c-1,0.8-0.4,0.7-1.9,1.6c-0.8,0.5-1.2,0.8-2,1.6c-1,0.9-0.7,0.8-2,1.5c-2.2,1.2-3.7,3.4-5.7,5l-2,1.6    C483,472.6,482.7,472.6,482.2,472.3L482.2,472.3z M299.4,348.5c-2.1,0-13.6-1.6-15.1-2.3c-2.7-1.2-4.3-0.8-7.3-1.3    c-2-0.4-4.6-1.3-6.9-1.6c-2.7-0.3-11-3.3-13-4.5c-2.2-1.2-9.9-3.2-13-4.2c-1.8-0.6-4.5-2-6.2-2.7l-20.1-5.7    c-4.1-0.8-19.8-10.8-19.7-14.7c0-1.4,0.9-2.1,2.4-2.1c3.3,0.1,12,9.1,18.9,11.3c4.4,1.4,9.1,2.8,13.6,3.6c3.9,0.7,6.1,2,9.7,3.3    l9.5,3.5c2.5,0.8,4.3,1.1,6.6,2c1.1,0.4,1.7,1,3,1.4c1.2,0.4,1.9,0.9,3,1.2c1.1,0.4,2.3,0.6,3.4,1c1,0.3,1.8,0.8,3.1,1.1    c2.4,0.5,5.1,1,7.3,1.4c2.1,0.3,5.3,0.6,7.4,1.1c1.3,0.3,2.1,0.7,3.4,1l11.5,1.3c5.1,0,9.8-0.7,14.8-0.2c4.2,0.5,8.8,0.6,13.2,0.9    l12.1,2.1c2.3,0.7,3.1,0.9,5.6,1.4c3.7,0.7,7.6,2.1,11.4,2.8c1.9,0.3,4.4,0.5,6.2,1c3.2,0.9,9.1,1.3,12.8,1.4l12.8,1.4    c6.3,0.7,13.5,1.8,19.8,0.9c3.3-0.5,7.3-0.5,10.6-0.6c1.2,0,3.1,0.4,5,0.4h6.8c5.1,0,15.1,2.1,23,0.9c10.1-1.6,25.6-0.8,33.8-2.2    c0.8-0.1,3.8-1,4.6-1.4c1.3-0.7,2.9-1,3.9-2c1-1,2.1-1.8,3.1-2.8c1.1-1,1.8-2,2.9-3l4.9-4c0.7-0.4,1.2-0.7,1.8-1.1    c0.9-0.6,2.7-2,3.5-2.8c1.1-1.1,1.8-1.9,3-3c3.7-3.2,6.7-9.4,10.6-13.1l3-3c0.9-0.8,0.6-0.2,1.6-1.4c0.5-0.6,0.8-1,1.4-1.6    c3.7-4,8-11,6.9-16.6c-0.8-4.2-2-3.8-3.6-8.3c-0.3-1-1.5-2.9-2.1-3.8c-0.7-1.1-1.5-3-2.7-3.3c-0.1,0.1-0.1,0.2-0.1,0.2l-0.6,2.9    c-0.5,3.1-1.4,6-2.3,9c-1.1,3.6-5.4,12-7.4,15.4c-1.8,2.9-7.3,9.9-9.5,12.8c-1.1,1.4-1,0.9-2,1.8c-3,2.9-6.9,6.2-10.9,8.1    l-5.2,2.1l-18.5,4c-2.6,0.3-5.3,0.2-8,0.2c-6.8,0-15.8,1.2-20.7,1.2c-2.4,0-4.7,0-7.1,0c-4.5,0-8.7-0.9-13.3-1.1    c-2.5-0.1-4.4-0.1-6.8-0.4c-7.3-0.8-14.1-1.3-21.3-1.5c-2.6,0-4.5-0.6-7.1-0.8c-2.5-0.2-4.8-0.4-7.4-0.4c-5.9,0-14.7,0.7-19.8-0.8    c-4.7-1.3-10.2-0.9-15-1.9l-14.9-2.2c-5.1-0.3-10.1-1.3-15.1-1.9c-1.3-0.2-2.6-0.4-3.8-0.6c-1.8-0.3-1.9-0.4-3.3-0.9    c-2.3-0.8-12.3-2.1-14.4-2.8l-13.8-3.1c-2.6-0.3-4.2-1.3-6.6-1.7c-2.7-0.4-4.5-1.2-7.1-1.5c-1.3-0.2-2.5-0.2-3.8-0.4    c-1.5-0.3-1.8-0.6-3.3-0.9c-2.4-0.4-5.4-0.4-7.6-0.9c-2.5-0.6-4.5-1.1-7.2-1.4c-3.3-0.4-9.9-2.4-13.5-3.4    c-1.8-0.5-4.4-1.6-6.2-2.4c-1.6-0.7-4.5-1.4-6.4-2c-1.1-0.4-2.4-0.6-3.6-0.8l-12.8-4.1c-1.2-0.5-1.8-0.8-3.2-0.9    c-4.7-0.5-17.8-5.8-20.7-1.7c-1.4,1.9-2.5,3.2-2.9,5.7c-1.1,7.3-1,5.2,1.1,10.3c1.2,2.9,3.6,4.7,5.9,6.5c3,2.3,7.3,4.3,9.9,7.3    c1.5,1.6,3.5,2.3,5.3,3.3c0.7,0.4,0.6,0.4,1.2,0.8l4.1,2.2c2,0.8,3.8,2,5.6,3c5.2,2.7,2.4,1.2,6.2,2.4c2.7,0.8,12.3,7.7,15.8,9.6    c1,0.5,1.9,0.8,3,1.4c0.9,0.5,2,0.8,2.9,1.3l11.1,5.8c1.7,0.9,4.4,1.7,6.2,2.4l8.5,4.2c3.2,2.2,11.1,5.1,14.2,6.8    c2.1,1.2,3.5,1.9,5.7,2.9c2,0.9,4.1,1.6,6.1,2.5c4.4,1.9,9.2,2,13.8,3.1c2.2,0.5,5,0.8,7.3,1c3.2,0.2,4.4,0.9,7.3,1.3    c2.5,0.4,5.2,0.2,7.8,0.4c3,0.2,4.7,1,7.2,1.4c4.9,0.7,3.4,1.1,6.7,1.9c2.7,0.7,4.1,1.3,7.1,1.3c11,0.2,22.2-0.1,33.2,0.6    c2.8,0.2,4.8,0.8,7.7,0.7l8.6,0.3c14.1,0.2,28.2-1.2,42.4-1.8c3.5-0.1,6.5-0.9,10.1-0.9l16.8,0.8c11.2,1,11.5,1.2,20.6-1.6    c1.7-0.5,4.3-1.2,5.7-2.1c1.7-1,3.3-1.8,4.9-2.8c1.6-1,2.7-2.3,4.4-3.3c0.8-0.5,1.8-1.1,2.5-1.6c2.2-1.6,5.2-6.4,6.7-8.7    c0.9-1.4,0.3-1.1,1.6-2.3c0.9-0.8,1.4-0.9,2.1-1.8l2.4-3.6c0.6-0.8,0.4-0.3,1.1-1l1-1.1c1-1,2.5-5.2,2.7-6.8    c0.9-7.8-0.7-6.5-2-9.6c-1.5-3.6-1.7-2.3-3.9-0.4c-0.7,0.6-1.4,1.1-2.2,1.7c-1.2,1-0.9,0.8-2.5,1.6c-1.6,0.7-5.3,4.3-6.4,5.5    l-4.1,3.9c-2.2,1.8-5.2,3.1-7.9,4.2c-1.3,0.5-1.7,0.4-3.1,0.8c-3.9,1-10.5,1.2-15,1.1c-5.1,0-9.3,0.9-14.2,1    c-7.4,0.2-15,0.9-22.5,0.2c-17.3-1.7-30.9,1.1-48.8-1.5c-2.2-0.3-4.6-0.3-6.9-0.5c-2.5-0.2-3.7-0.6-6.3-0.7    c-10.4-0.5-11.4-1.4-19.5-2.5l-17.7-4.3c-2-0.7-4-0.7-6.3-1.1c-2.1-0.3-3.4-0.9-6.1-1.1C317.8,348.1,309,348.5,299.4,348.5    L299.4,348.5z M445.9,208.9c-0.9-0.4-2.6-0.4-3.7-0.2c-1.1,0.2-1.5,0.7-1.9,1.7c-2.1,4.9,4.4,7.6,6.6,3.9    C447.7,212.7,447.6,209.7,445.9,208.9L445.9,208.9z M280.5,201c-4.2-1.7-9.8,4.6-4.3,7.9C281.5,212,285.2,203,280.5,201L280.5,201    z M469.7,196.3c-3.3-1.2-7.9,5.1-5.1,11.6c1.7,3.9,4.9,3.5,7.5,3.5c3,0,3.8-1.1,5.1-2.6c1.5-1.6,1.2-3.7,1.2-6.4    c0-1.5,0-2.4-0.7-3.2C475,195.7,471.9,197.2,469.7,196.3L469.7,196.3z M310.6,191.9c-1.9-0.8-5.8,0.8-7.3,1.5    c-10.2,4.7-5.2,16.1,0.6,16.1c3.9,0,5.3,0.3,8.5-1.2c4.9-2.3,6.7-10.1,4.4-13.1C314.5,192.2,312.9,192.8,310.6,191.9L310.6,191.9z     M443.2,189.3c-2.1-0.6-3.9,1.7-4.4,3.4c-0.8,2.7,0.8,5,2.8,5.4C446.3,199.1,449.8,191.1,443.2,189.3L443.2,189.3z M416.5,221.4    c1.6,0.4,5,1.8,6.4,1.6c0.1-2-1.4-5.8-1.5-8.9c-0.1-3.9,0.7-5.7,1.1-9.1c0.6-5.4,1.5-5.2,2.4-7.8c0.4-1.4,0.5-2.5,1.2-3.9    c0.5-1,1.5-2.2,1.3-3c-0.9,0.2-7.2,7.1-8.1,8c-1.9,1.9-9.2,11.8-9.6,15C408.8,220,407.5,219.2,416.5,221.4L416.5,221.4z     M276.9,184.4c-1.5-0.6-2.6-0.2-3.8,0.7c-1.2,0.9-1.4,1.2-2,2.7c-0.9,2.4,1.3,5.2,3.1,5.4c3.7,0.5,6-2,6.3-3.3    C281.2,186.8,279.2,185.3,276.9,184.4L276.9,184.4z M483,224.8c1.7,0.2,11.3-1.5,12.9-2c3.4-1.1,7.1-3,9.8-4.9    c5.3-3.8,7.1-6.7,11-11.2c0.9-1.1,3-2.3,3.5-3.6c1.7-4.4-4.2-5.2-7.9-6.6c-2.6-1-12.3-5.6-14.7-7.2c-1.5-0.9-2.8-1.9-4.6-2.8    c-1.6-0.8-9.1-4.2-11-3c0.4,1,0.1,0.3,0.8,1.1l4.8,7.7c2.9,7.4,4.1,16.5,0.5,23.8c-0.8,1.6-1.4,3.3-2.3,4.8    C484.9,222.2,483.2,223.6,483,224.8L483,224.8z M258.8,184.5c2.6-3.5,3.1-2.4,3.5-4.1c-0.5-0.3-0.1-0.2-0.8-0.3    c-0.1,0-0.2,0-0.3,0l-20.5,2c-3,0.1-18.6,2.1-20.1,3.3c0.2,1.1,0.4,0.7,1.7,1.1l6,2.4c3,1.3,5.5,1.7,8.4,2.9    c3,1.2,5.2,2.1,7.9,3.4c4.2,1.9,4.7,4.2,6,4.6l0.5,0c0.5-0.8,0.5-2.1,0.8-3.1C253.2,191.9,256,188.3,258.8,184.5L258.8,184.5z     M331.8,228.4c8.2,0.7,21,0.5,28.1-2.1c2.6-0.9,5.1-2.4,7.3-3c2.7-0.8,4.7-2.2,7.9-2.5c1.1-0.1,6.6,1.4,3.8-5.5l-8.8-22.1    c-1.3-3.6-6.1-8.8-9.1-11.3c-4-3.3-3.1-3-7.1-3.1c-1.8-0.1-3-0.4-5-0.4c-1.9,0-3.1,0.3-4.7,0.3c-6.8,0-12.7,1-19.5,1    c1.1,3.7,8,2,6.7,24.7c-0.4,7.4-3.2,15.4-7.8,21.2c-0.8,1.1-0.4-0.1-0.7,1.4L331.8,228.4L331.8,228.4z M442.3,174.6    c0.1-1.1,0.6-0.8,1.6-1.4c0.9-0.5,1.2-0.9,2.1-1.5c0.9-0.6,1.5-0.9,2.2-1.4c4.4-2.7,6.2-4.7,12.2-5.2c9.4-0.8,16.5-1.9,25.9-0.7    c4.8,0.6,12.8,1,17.5,3.2c5,2.4,3.7,2.4,5.5,4.9c0.6,0.9,0.9,1.1,1.4,2.1l7.3,10.5c0.6,0.8,0.9,0.9,1.7,1.9    c2.3,2.9,2.5,1.7,3.2,3.6c0.6,1.8,1.3,5.8-1.8,3c-1.5-1.4-6.3-2.6-9.6-4.3c-3.2-1.7-6.3-2.7-9.5-4.5c-1.6-0.9-3.7-2.5-6.4-4    c-4.2-2.3-8.8-3.5-13.7-3.8c-2.1-0.1-3.9-0.6-6.2-0.6c-2.3,0-4.5-0.2-6.6-0.4C465.8,175.7,442.9,175,442.3,174.6L442.3,174.6z     M343.5,172.4c-1.2,1-1.8,0.2-3.5,0.3c-1.3,0.1-2.7,0.5-4.2,0.5l-18.1,1.1l-46.5-0.8c-5.4,0-10.4,1.1-15.4,1.2    c-4.9,0.1-10.9,0.8-15.4,1.5c-6.6,1-15.7,1.4-21.6,3.6c-1.1,0.4-2,0.7-2.9,1.2c-0.9,0.5-1.7,1.4-3.2,1.3l-5.9-2.5    c-2.1-1.2-1.1-1.8,1.3-4.8c1.4-1.8,1.5-2.6,4.5-5.8l3.2-3.3c1.3-1.5,5.5-3.9,7.3-5.1c1.6-1,13.3-4.9,15.7-5.6    c6-1.9,14.3-3.2,21-3.9c1.3-0.1,2.8-0.1,3.9-0.3l15-1.7c9.7-0.3,9.7-0.3,19.9,0.7c5.7,0.5,13.4,4.2,18.4,6.8l12.6,8.4    c1.3,0.8,1.2,1.1,2.7,1.8l2.7,1.5c0.8,0.4,2,0.8,2.9,1.3C339,170.1,343,171.6,343.5,172.4L343.5,172.4z M391.3,453.3    c2.2,0,1.5-0.7,2.6-2.2c1.7-2.2,6.8-4.5,9.5-6c2-1.1,4.4-2.9,6-4.3c0.9-0.8,1.8-1.4,2.8-2.2l5.4-5c2.5-2.9,5.2-4.5,7.9-7.5    c1.8-2,3.6-2.9,5.6-4.7c2.5-2.3,6.3-4.3,9.2-6.2c1.3-0.9,1.7-1.5,2.7-2.3c1.8-1.5,4.8-2.1,7.2-3.2c2.6-1.2,4.2-2.4,6.9-3.5    c5.2-2.1,12.6-2.6,17.9-1.2c1.8,0.5,4.9,2.9,6.4,4l8.3,7.1c3.8,3.6,3.2,2.2,6.4-1.1c0.7-0.7,1-1,1.6-1.6l1.5-2    c1.8-2.1,4.7-5.3,5.9-8c1.2-3,3.2-6.5,3.7-9.9c0.5-3.3,0.7-10-0.5-12.6c-1.4,0.1-1.5,0.4-2.3,1.2c-0.8,0.7-1.4,1-2.2,1.7    c-1.4,1.1-2.9,2.2-4.4,3c-0.9,0.5-1.2,0.8-2.2,1.4c-2.5,1.3-5.3,2.5-8.1,3.2c-7.8,1.8-1.9,1.8-12.8,2.1    c-8.8,0.2-19.9-1.6-28.4-0.9c-4.5,0.3-9.2,0.9-13.9,1c-9.6,0.2-18.6,1.4-28.4,1.4c-4.8,0-9.9,0.2-14.7-0.1c-2.6-0.2-4.4,0-6.9-0.5    c-1.6-0.3-5-0.5-6.8-0.5c-4.7-0.1-9.5-0.5-14.5-0.5c-5.7,0-16.4,0.8-21.5-0.9l-5.5-1.9c-6.4-2.3-15.3-1.5-19.7-2.8l-19.4-3.1    c-7-1.2-12.6-4.3-18.8-7c-0.9-0.4-1.5-1-2.4-1.4c-3.6-1.7-6.5-2.6-10.2-4.6c-5.4-3-9.4-5-15.3-7.2c-1-0.4-1.4-0.6-2.4-1.2    c-2.5-1.3-4-1.4-7.6-3.6c-1.9-1.2-2.8-1.5-5-2.4c-4.1-1.8-6.1-3.2-9.4-5.4c-1.4-0.9-3.1-1.9-4.6-2.8c-8.2-4.9-5.7-2.4-10.3-4.8    l-4.9-2.5c-1.1-0.5-1.1-0.9-2.2-1.3c-2.6-1.1-9.9-5-11.8-6.9c-3.5-3.6-12.2-7.9-15.5-12.4c-0.3-0.4-0.4-0.7-0.8-1.2    c-2.3-3-4.1-7.3-3.5-11.3c0.2-1.2,0.7-5.7,1-6.7c0.9-2.7,3.8-7.5,6.3-8.5c3-1.2,2.5-1.2,6.1-1.2c4.7-0.1,8.5,1,13,2    c1.9,0.4,3.7,1.2,5.9,1.5c2.5,0.3,19.6,5.8,22.9,6.7c4.3,1.2,6.1,2.5,11.2,3.9c3.9,1,7.8,2.1,11.8,3l12.8,2c2.2,0.2,3.8,1,6.2,1.3    c2.5,0.3,3.9,0.7,6.2,1.2c2,0.4,4.3,0.7,6.2,1.2c7.8,2.3,22.2,5,30.6,6.7c1.9,0.4,3.9,0.9,6.1,1.3c2.3,0.4,4.5,0.4,6.6,0.8    c2.1,0.4,4.2,0.6,6.5,0.9c2,0.3,5.3,0.1,7.1,0.6c8.2,2.1,17.7,2.2,26.1,3.8c9,1.7,19.5,0,28.7,1.2l13.4,1.4    c3.5,0.2,11.4-0.1,14.3,0.7c5.5,1.4,22.2,1.9,28.1,1.3l14-0.8c2.4-0.2,4.9,0,7.3-0.1c1.2,0,2.4-0.1,3.6-0.2l9.2-1.9    c5.4-1.9,6.9,0.3,16.7-5.9c2.2-1.4,4.2-3.2,6-4.9c2.1-1.9,3.3-3.9,5-6.2c2-2.8,4.5-5.7,6.2-8.6c0.6-1,0.5-1.6,1.1-2.4    c1-1.3,0.6-0.7,1.3-2.5l4.5-10.6c2.4-7.9,2.4-17.7-2.2-24.5c-0.7-1.1-0.5-1.4-1.1-2.4c-1-1.5-2-1.6-3.3-4.1    c-0.9-1.6-5.5-5.8-7.2-8c-0.6-0.8-0.9-1.4-2.3-1.4c-1.5,2.1-0.8,2-3.3,4.7c-0.6,0.7-0.6,0.8-1.2,1.5c-0.9,1.2-4.4,4-6,4.7    c-3.8,1.7-14.2,2.6-19.1,1.9c-3.8-0.6-3.4-5.2-0.1-5.7c1.1-0.2,3.9,0.1,5.2,0.1c4.6,0,11.8-0.6,14.8-4c0.7-0.8,1.4-2,2.4-2.9    c0.7-0.6,1-0.5,1-1.7c-1.4-0.2-4.1,0.5-5.8,0.6c-2.4,0.1-3.9-0.3-6.2-0.3c-2.3,0-4.1,0-6.3-0.2c-1.4-0.1-1.6,0.2-2.5-0.9    c-1.6-2-0.5-4.9,4-4.6c11,0.5,17.2,1.4,25.6-6.6c1.2-1.2,2.1-2.1,3.1-3.4l2.1-3c1.1-1.3,2.7-3.2,3.4-4.8c1.5-3.2,3.4-6.2,3.7-9.7    c0.1-1.4,1.2-4.4,0.5-5.6c-0.1-0.1-0.3-1.1-1.4,0.5c-0.5,0.7-0.6,1.2-1.2,1.8c-0.9,1-1.8,1.7-2.7,2.9c-2.1,3-4.6,4.8-6.9,7    c-2.9,2.7-9.1,6.1-12.7,7.2c-2.8,0.8-6.3,1.6-9.4,1.9c-3.4,0.4-6.7,1-9.8,1.5c-2.3,0.3-19.6,0.1-22.2-0.1    c-3.5-0.3-6.5-0.8-10.3-0.8c-9.5,0-22.5-0.3-30.8-3.3c-3.6-1.3-9.7-1.3-11.8-5.2c-0.7-1.3-1.5-2.6-1.4-4.4    c0.5-9.9,3.4-11.3,6.4-16.6c1-1.7,2.4-3,3.5-4.8c0.7-1.1,0.5-0.6,1.4-1.6c0.4-0.5,0.7-0.9,1.2-1.5c3.3-3.6,6.6-5.7,9.5-10.4    c1.4-2.4,3.2-4.5,5.1-6.4c1-1,1.8-2.1,2.7-2.9c3.6-2.9,13.3-9.4,16.8-11.3c3.6-2,4.6-2.5,8.7-2.9l10-1.2    c7.2-0.3,14.4-0.5,21.5,0.4l10.1,1.4c2.7,0.8,6,1.8,8.3,3c1.6,0.9,2.3,1.3,3.2,2.4c0.6,0.7,0.8,0.8,1.3,1.4c1.5,1.9,5.9,8,6.9,10    c0.8,1.7,0.3,0.6,1.3,1.7c1.1,1.3,0.9,3,2.8,3.1c0.6-1.9,0.6-11.5-0.1-14.1c-1.6-6.1,0.6-6.1-5.5-9.5c-7.1-4-11.2-5.2-19.6-5.4    c-1.7,0-2.8-0.5-4.2-0.7c-8.8-1.2-31.6-1.7-38.3-0.3c-8.2,1.7-14.6,4.1-21.5,8.7l-5.8,4.2c-0.6,0.5-0.8,0.4-1.4,1    c-1.3,1.2-2.8,2.2-4,3.7c-1.1,1.5-3.5,4.5-5.4,4.7c-3.2,0.3-4-3-2-5.2c1.7-1.8,3.2-3.5,4.9-5.2c1.7-1.7,3.5-2.8,5.4-4.6    c1.6-1.6,4.1-2.7,6-4.1c1.8-1.3,7.8-4.4,9.7-5.1c10.9-4,9.1-2.8,20.7-4.4c4.9-0.7,14.1-0.2,19.3,0c1.6,0.1,2.4,0.5,4.4,0.5    l9.8,0.6c2,0.3,1.2,0.5,4.2,0.6c6.7,0.1,10.4,1.3,16.7,3.6c2.5,0.9,7.4,4,9,6c1,1.2,1.1,2.1,2.9,2c-0.2-3.4-10-8.8-12-10.3    c-4.5-3.4-9.1-6.6-14.8-8c-2-0.5-17.4-2-20.8-2c-7.3,0-28.5,1.1-34.2,3.7c-1.2,0.6-1.5,0.6-2.8,1.1c-2.2,0.8-6.3,4.1-8.6,2.9    c-0.9-1-1.6-1.9-0.9-3.6c0.8-2,1.3-1.4,2.7-2.4c2-1.4,6-3,8.5-3.9c3-1.1,12.5-2.1,15.5-2.4c9.1-0.8,18.7-1.7,28.1-0.8    c1.9,0.2,7.5,1.1,9,1c0.8-1.7-0.6-2.8-1.4-4.1c-1.4-2.4-3.3-4.2-4.9-6.4c-1.1-1.5-2.1-3-3.7-4.6c-2.4-2.3-3.9-4.3-6.7-6.4    c-0.7-0.5-1.2-0.8-1.9-1.3c-0.9-0.7-0.6-0.7-1.9-1.4c-1.7-0.9-2.3-1.9-3.7-2.8l-9.6-6.7c-2-1.2-4.6-2-6.4-3.4    c-4.6-3.4-9.9-5.5-15.1-7.7c-1.1-0.4-1-0.7-2.2-1.1c-1.7-0.6-3.5-0.6-5.3-1.2c-13.8-4.3-24.2-6-39.5-6c-3.4,0-8.5,0.6-11.8,1.2    c-5.5,0.9-11.2,1.2-16.5,3c-4.1,1.4-5,2.1-9.9,3.2c-2.3,0.5-2,1-5.2,1.3c0,0.9,1.1,1.8,1.7,2.4c4.2,4.4,7,7.1,10.5,12.3    c0.4,0.7,0.5,0.5,0.9,1.1c0.4,0.5,0.5,1,0.8,1.5l5.2,8.4c0.7,1.3,2.4,3.7,3.4,5.8c1.2,2.7,2.1,3.4,3.5,5.7    c1.7,2.8,2.9,6.5,4.3,9.3c0.8,1.6,1.3,5.8,1.1,7.6c-0.3,2.7-2.5,4.5-0.2,6.6c1.6,1.5,2.8,3.3,4.3,4.9c3.3,3.7,5.8,5.4,8.4,10    c0.8,1.5,2.6,9.1,2.8,11.1c0.3,2.4,0.5,6.2,0.6,8.6c0,2.1,0.4,7.2-0.3,8.7c-1.1,2.5-4.7,1.7-5.3-1.1c-0.8-3.3,0.2-12.9-0.8-17.5    c-2.5-10.7-4.1-9.6-10.4-16.8l-4.2-4.9c-1.6-1.5-4.2-3.1-5.8-5.1c-3.3-4-9.3-9.6-14.2-11.3c-3.9-1.3-12.6-1.8-16.7-1.5    c-2.9,0.2-5.9,0.4-8.9,0.3c-2-0.1-7-1.3-8,0.5c0.5,1.1,5,2.4,6.3,2.9c2.3,0.8,4.4,1.8,6.8,2.7c3.2,1.1,6.3,2.9,8.9,5    c1.3,1.1,1.5,0.9,2.7,2c3.1,3,6.7,6.1,9.3,9.3c1,1.2,1.1,1.5,2.3,2.5c1,0.8,1.6,1.5,2.5,2.2c1.7,1.3,3.7,2.7,5.3,4.1    c3.5,3.1,6,6,9.4,9.2l4.5,4.6c2.5,2.1,4.9,4.3,6.8,7.1c0.7,1,1.4,1.7,2,2.8l1.6,3.1c1.7,4.4,2.7,4.7,3.3,10.8    c0.3,2.5,1.4,6.7-0.7,8.1c-1,0.4-2.1,0.5-3.1,0c-0.9-0.6-0.5-0.1-0.9-1.6c-0.2-0.8-0.3-1.5-0.3-2.4c-0.1-2.8-1.1-5.5-1.6-8.4    c-0.2-1.3-1-2.3-1.6-3.4c-1.2-2.4-2.4-4.5-3.7-6.4c-1.7-2.3-5.4-5.5-7.7-7.7l-2.6-2.5c-3.7-3.3-6-7-10.3-9.8    c-6.5-4.3-10.3-9.4-15.7-14.8c-5.5-5.4-11.8-9-19.2-11.3l-7.2-2.8c-4.4-1.5-15.2-6.1-19.4-5.8c-8.3,0.6-16.8-0.6-25,0.3    c-2.8,0.3-6.1,1-9.2,1c-3.4,0-6.7,0-10.1,0c-4.5,0-15.6-1.5-19.4-0.4c-1.1,0.3-2.6,0.8-3.8,1.2c-1.5,0.4-3.1,0.5-4.4,0.9    c-5.3,1.8-10.1,3-14.5,5.6c-2.2,1.3-3.7,3.1-5.3,4.7c-1.8,1.7-3.4,3.1-5.2,5.1c-2.2,2.4-5.4,5-7.4,7.7c-2.4,3.1-5.7,5.4-7,8.4    c-0.9,2.1-1.2,6.7,0,8.4c6.7,0.5,8.1-3.1,11.3-7.3c6.8-9,2.5-3.7,8.8-10.2c2-2.1,5.9-4.3,8.4-5.9l10.3-4c2.4-0.6,5.3-1.4,7.6-2.2    c3.9-1.4,3.8-1,7.7-1.8c2.6-0.5,5-1,8-1.4c2.8-0.4,6.2-0.4,8.7-0.9c2.2-0.4,5.9-1,8.2-1.2l8.7-0.6c3,0,5.9-0.3,9.2-0.3l8.3,0.8    c3.3,0.4,5.3,0.5,8.3,1.6c1.2,0.4,2.6,0.6,3.8,0.9c1.2,0.4,2.1,1,3.2,1.6c2.7,1.4,5.7,2.1,8,3.9c0.7,0.5,0.4,0.4,1.4,1    c3.3,1.8,11.1,7.7,12.8,8.5c0.6,0.4,1,0.4,1.6,0.8c2.7,1.8,6.6,3.2,9.7,4.5c1.4,0.6,1.9,1.1,3.1,1.6c4.3,1.6,9,3.9,12.6,6.6    c1.1,0.9,1.6,1.3,2.6,2.1c0.6,0.5,2.2,1.6,2.6,2.1c1.6,1.8,3.3,3,4.7,4.8l3.6,6.1c1,2.3,1.7,4.5,2.8,6.8l2,5.1    c1.9,3.8,2.8,8.2,4.9,11.7c0.9,1.5,0.3,2.9,0.9,4.1c0.3,0.6,3.3,1.6,4.1,2.2c1.4,0.9,2.3,1.9,3.2,3c0.6,0.8,0.8,0.7,1.1,1.9    c0.7,2.4,1.1,6.1,0.3,8.3c-1.5,4.1-6.9,7.1-9.6,9.1c-5.1,3.9-9.2,4.1-13.5,8.1l-4.6,4.9c-2.1,2.5-4,3.9-6.2,6.3    c-1.1,1.1-1.8,2.3-2.8,3.4c-2.6,3.1-4.7,5-7.9,7.5c-0.8,0.6-1.3,0.8-1.9,1.3c-3.3,2.9-6.8,6-11,7.7l-8.8,3.7    c-1.7,0.5-2.7,0.5-5,1.3c-1.7,0.6-2.9,1.2-4.5,1.7c-1.8,0.6-3.3,0.7-4.9,1.4c-6.2,2.6-11.4,5-17.8,7.1c-3.8,1.3-7.3,0.7-11.6,0.9    c-1.6-2.6-1.3-2.8,0-5.5c2.1,0,5.2-0.1,7.2-0.3c2.4-0.3,4.8-1.2,6.9-2.2c0.3-0.1,1.1-0.4,1.3-0.5l5.2-2.1c1.4-0.5,1.5-0.7,2.7-1.2    c0.8-0.4,1.8-0.5,2.7-0.9c1.4-0.6,0.8-0.8,2.6-1.2c2.4-0.5,3.7-0.8,5.8-1.7c2-0.8,3.4-1.3,5.6-1.8c2.6-0.6,3.4-1.3,5.7-2    c3.1-1,5.1-2.6,7.4-3.5c1.9-0.8,2.7-2,4.3-3.1c1.4-1,2.6-2.5,4-3.4c1.9-1.1,4.8-3.3,6.2-5c1.6-1.9,0.8-1.5,3.3-4.1l3.6-3.8    c1.1-1.1,3.3-2.9,3.5-4c-0.4-0.2-7.8-0.4-9.8-0.8c-3.5-0.7-7.5-0.4-11.1-0.4c-3.8,0-7.5-0.3-10.9-0.3c-1.8,0-3.5-0.1-5.3-0.4    c-2-0.2-3.2-0.7-4.9-1c-3.5-0.6-6.9-0.6-10.5-0.8c-4.7-0.2-16.8-1.2-21.2-1.9l-10.1-1.5c-1.9-0.2-3.2,0-5.1-0.6    c-1.4-0.4-3-0.9-4.5-1.2c-3-0.7-5.4-2.3-8.5-3c-3.8-0.9-6.3-3-9.3-4.9c-2.3-1.5-3-2-4.9-4c-4-4.1-7.7-7.3-11.9-10.9    c-2.1-1.8-3.7-3.9-6.2-5.3c-1.2-0.7-2.5-1.2-3.3-2.4c-0.8-1.2-0.2-3.1,1.3-3.9c3-1.6,7.3,3.4,9,4.6c2.3,1.8,11.7,10.2,13.1,11.8    c0.8,0.9,0.9,1,1.7,1.8c1.6,1.7,1.9,1.8,4,3.1c8.1,5.1,8.3,3.7,14.4,6.6c5.9,2.8,11.9,2.1,18.1,3.2c8.3,1.6,17.2,2.3,25.5,2.6    c2.3,0.1,4.2,0.4,6.5,0.5c5,0.2,7.8,1.6,12.8,1.7c4.6,0.1,9.1,0.3,13.7,0c4.3-0.2,9.1,0.7,13.1,1.1c2.1,0.2,4.7,0.2,6.8,0    c1.9-0.2,4-1.2,5.5-1.7c1.7-0.7,3.3-1.4,4.9-2.2c5.4-2.6,8.5-4.7,12.8-8.6c0.9-0.9,0.9-0.5,1.1-2.3c0.5-4.1-3.4-6.4-4.3-6.2    c-1,0.6-0.8,1-2.2,1.8c-3,1.8-6.5,0.6-9.5,2l-13.9,5.3c-1.9,1.1-7.5,1.3-9.9,1.6c-5.1,0.6-9.7,0.5-14.6,0l-10.5-1    c-1.3-0.2-1.5-0.4-3.2-0.6c-4.2-0.4-8.9-1.6-13.1-2.4c-2.9-0.5-3.7-0.5-6.3-1.4c-0.9-0.3-2.3-0.4-3.1-0.8l-2.6-1.2    c-4.8-1.8-12.8-4.2-17.9-5.2c-2.1-0.4-3.9-1.3-5.8-2c-1.5-0.5-1.5-0.8-2.6-1.3l-13.6-5.7l-3.9-3.8c-1.4-1.3-2.8-2.2-4.2-3.5    c-1.6-1.5-2-2.3-4-3.7c-6.5-4.7-13.8-5.9-21.8-9c-3-1.1-7.4-3.4-10.4-5c-1.6-0.8-4-1.5-5.5-2.2c-2.6-1.1-3.1-1.9-4.9-3    c-4,1.2-10.4,3.4-13.3-0.7c-3.4-4.7-2.9-8.1-1.2-13.6c1-3.3,3.4-5.3,5.9-7.5c0.7-0.6,1.3-1.7,1.9-2.5l8.7-9.1    c2.5-2.8,6.5-6.3,9.2-8.6c4.2-3.6,7.2-3.9,12.2-5.6c6.8-2.4,3.4-1.4,10.3-3c1.7-0.4,2-0.6,3.3-1.1c2-0.7,14.8-0.3,17.4,0    c5.6,0.7,11.6,0.1,17.1-0.2c5.5-0.2,11.6-1,16.9-0.9c4.2,0.1,8.7,0.6,13,0.1c1.2-0.1,2.6-0.5,3.6-0.6c4.2-0.4,12.4,0.4,16.9,0.7    c5.5,0.4,11.9,0,17.5-0.3c4.3-0.2,2-1.1,7.8,0c2.1,0.4,5.9,0.4,8.2,0.6c5.6,0.6,9.2,2.6,12.5,5.3l4.7,4.2c1,1.1,3.1,4,4.6,4.1    c1.7-2.9-1.4-8.4-2.7-11.1l-2.6-4.8c-1-1.5-2.3-2.9-2.9-4.8c-0.8-2.9-2.2-3.1-4-7.5l-4.3-6.3c-2.2-3.2-3.6-5.9-6.4-8.7    c-1.3-1.3-2.6-2.6-3.9-3.8c-3-2.8-8.2-8.9-11.4-11.1l-9.1-6.3c-3-1.9-6.4-4-9.7-5.4c-3.2-1.4-1.8-1.3-6.1-1.6    c-2.2-0.1-5-0.1-7.1-0.4c-2.2-0.3-1.2-0.8-2.7-1c-10.8-1.3-21.5-1.4-32.3-2.2c-4.6-0.4-9.9,0.5-14.5,0.7c-2.4,0.1-4.4,0.7-6.8,0.9    c-5.4,0.3-10.3,1.9-15.5,3.3l-5.8,1.9c-2.6,0.8-5.4,2.5-7.5,4c-1.4,1-3,2.1-4.3,3.1c-1.6,1.3-2,2.3-4.2,3.5    c-2.3,1.3-5.3,4.8-8.1,7c-1.4,1.1-2.9,2.1-4.4,3c-1.8,1.2-4.9,1.3-5.3-1.1c-0.6-3.3,4.4-4.9,7.9-7.6c2.5-2,3.8-4.3,5.8-5.5    c0.9-0.5,1.4-1,2.3-1.6c2.6-1.8,4.5-4.2,8.5-6.6c2.2-1.4,1.9-1.4,4.7-2.7c9.7-4.5,20.4-5.6,30.9-7.3l14.4-0.8    c5.4,0.1,30.5,1.4,35.3,2.7c2.9,0.8,7.3,1.1,10.4,1.2c2.9,0.1,0.8-3.7,0.1-8.1c-0.5-3.1-3-7.5-4.6-10.5c-1.7-3.2-3.6-7.1-5.7-9.8    l-3.3-4.1c-2.5-2.6-9.5-8-12.7-10.1c-6.9-4.4-13.8-6.9-22.3-8.2c-4.4-0.7-9.4-0.6-13.8-1.4c-9.1-1.5-19.7-1.2-28.9-0.5    c-8.4,0.7-11.9,0.5-20.1,2.6c-3.2,0.8-2.9,0.8-5.3,2.4c-3,1.9-6.1,2.9-9.7,5.4c-5.5,3.7-5.6,1.3-13.3,9.5c-1.3,1.4-2.5,2.2-3.7,4    c-0.9,1.4-1.8,3.3-2.9,4.5c-1.9,2.1-8.5,11.3-9.4,13.7c-0.7,1.9-1.6,3.1-2.5,4.9c-0.9,1.9-1.9,3.3-2.7,5    c-2.4,5.1-6.3,8.8-10.1,12.7l-7.1,8c-1.8,1.9-1.8,2.5-3.2,4.5c-0.9,1.3-2,3.3-3.1,4.3c-3.7,3-0.4-0.7-3.7,3.9    c-1.2,1.7-2.4,2.6-3.7,4c-0.7,0.7-1.2,1.2-1.9,1.9c-0.7,0.6-1.5,1.1-2,1.8c-1.4,1.8-0.6,1.8-3.1,4.3c-1.2,1.2-2.4,2.6-3.2,4.5    c-0.9,2-1.8,2.5-3,4.3c-1.2,1.9-1.6,3.5-2.8,4.9c-1.1,1.4-2.1,2.7-3,4.4c-1.3,2.7-4.5,6.6-6.2,9.3l-4,7.3    c-0.6,1.5-0.8,1.3-1.5,2.4c-1,1.8-1.5,3.5-2.5,5.2c-0.5,0.8-0.9,1.4-1.3,2.2c-0.7,1.3-0.7,1.1-1.5,2.3c-1.8,2.7-3.6,7.1-4.9,10.2    c-1,2.4-4.3,7.3-5.7,9.7c-0.8,1.5-2.4,3.2-3,4.7c-0.6,1.2-0.1,1.3-1,2.5l-3.8,7.7c-1.4,3.8-3.9,6.4-5,10.4c-0.5,2-1.6,2.9-2.7,4.8    c-0.9,1.5-1.9,3.3-2.5,5.1c-0.9,2.7-2.9,4.9-4.2,7.4c-1.3,2.6-2.2,5.2-3.7,7.5l-5,10.1c-0.8,1.6-2,3.4-2.4,5.3    c-0.5,2.8-1.5,2.7-2.3,5.1c-1.8,5.3-2.5,5.1-3.6,8l-3.4,8.2c-0.2,0.7-0.8,2-1,2.5c-0.3,1.1-0.1,2-0.7,3.2    c-1.1,2.6-1.2,2.8-1.8,5.9c-0.6,3-1.6,5.9-3,8.3c-0.6,1-2.2,7.2-2.5,8.7c-0.4,1.8-1.5,3.6-1.8,5.9c-0.3,2.3-0.5,1.5-0.9,2.9    c-0.2,0.8-0.4,2.4-0.5,3.3c-0.2,1.1-0.2,2.3-0.4,3.5c-0.2,1.4-0.7,1.9-0.9,2.9c-0.3,1.2,0,1.9-0.3,3.3c-1.1,5.4-0.3,3.9-0.8,6.9    c-0.2,1.3-0.5,1.9-0.8,3.1c-0.5,2.1,0.1,4.8-0.6,6.9c-1.8,5.6-1.2,8.5-1.6,9.6c-0.5,1.7-0.8,0.2-0.8,3c0,2.4-0.8,4-0.9,6.8    c0,5.9-0.4,3.2-1,6.8l-2,9.2c-0.3,2.3-0.3,4.9-0.8,6.9c-0.3,1.3,0,2.3-0.3,3.6c-1.2,4.6-0.2,9.7-1.2,14.2    c-0.5,2.3-0.1,4.7-0.7,6.7c-1.5,5,0,10.7-0.9,14.5c-0.4,1.5-0.8,0.6-0.8,3c0,1.6,0,2.1-0.4,3.5c-0.8,2.9-0.1,4.2-0.5,6.9    c-0.2,1.3-0.6,1.8-0.8,3.1c-0.2,1.3,0,2.3-0.3,3.6c-1.5,6-0.5,1.5-0.8,6c-0.2,3.8-2.4,8.9-0.4,13.1l1.3,10.3    c0,2.2,0.4,1.5,0.8,3.1c0.4,1.1,0.1,2.3,0.3,3.5c0.5,3,1.4,6,2.5,8.8c0.5,1.2,1.3,5.6,1.6,6.1c0.6,1.1,0.7,0.7,1.2,2.3    c0.4,1.4,0.5,1.7,1.1,2.7c1.4,2.5,2.2,5.6,3,8.3l4,7.6c1,1.5,2.3,3.1,3.4,4.3c1.4,1.4,2,3,3.2,4.5c1.3,1.7,2.3,2.4,3.5,3.9    c1.3,1.6,2.3,2.3,3.8,3.9c4.5,4.7,4,3.4,8.6,6.5l9.4,5.7c1.8,0.9,2.9,2.2,4.9,2.8c3.7,1,6.9,3.1,10.4,4.8l2.8,1    c2.9,0.9,4.4,3.2,10.2,5.2c1,0.4,2,0.4,3,0.8c3.6,1.6,7,2.7,11,4.1c2,0.7,4,0.8,6.1,1.6c1.5,0.6,4,0.5,6.3,1.4    c2.5,1,8.8,3.5,11.5,3.7c1.2,0.1,2.4-0.1,3.6,0c1.3,0.1,1.6,0.6,3,0.8c1.6,0.2,1.9-0.1,3.3,0.6c1.6,0.8,1.1,0.4,3.2,0.5    c1.5,0.1,1.6,0.4,2.9,0.7c1.3,0.3,2.4,0,3.6,0.2c1.5,0.2,1.4,0.7,3,0.9c1.2,0.1,2.6-0.1,3.8,0c1.3,0.1,1.6,0.6,3.1,0.8    c1.2,0.2,2.5,0.1,3.7,0.1c3.1,0,4,0.9,6.6,1.1c3.5,0.3,7.3-0.2,10.8,0.6c4.7,1,13.2-1.2,18,1c0.5,0.2,33.9,1.1,37.2-0.1    c3.2-1.1,10.3-1.3,13.7-1.4c2.8-0.1,3.3-1.2,6.5-1.2c3.4,0,7.5,0.5,10.7-0.5c2.9-0.9,44.8-0.3,49.5-0.4c2.4,0,2-0.9,6.2-1    c6.8,0,24.4,0.8,29.6-1.1c1.7-0.6,4.4-1,6.2-1.5c1.5-0.4,4.5-1.2,5.4-1.9c0.7-0.6,4.4-1.6,5.7-2.1c3.8-1.5,2.3-1.5,5.4-2    c1.5-0.2,1.6-0.6,2.6-1.2c0.9-0.5,1.8-0.4,2.9-1c5.4-2.6,3.3-0.7,8-7.3l3-4.4c3.3-4.4,5-3.4,4.1-10c-1-7.1,1.7-13.5-0.5-21    c-0.5-1.7-4.8-7.6-6.1-9.3c-1.2-1.5-1.5-3-2.7-4.8c-3.7-5.9-5.7-6.8-10.8-12c-1.3-1.3-2.4-2.2-3.6-3.8c-0.9-1.3-1.9-3.4-2.8-4.9    c-2-3.4-3.8-7.1-2.9-12c1-5.3,0.9-6.1,5.1-10.1c5.8-5.6,14.3-8.9,22.5-6.2c1.6,0.5,4.2,1.5,5.2,2.5    C390.2,451.3,390.2,451,391.3,453.3L391.3,453.3z M456.4,89c-1.3-0.3-0.2-0.3-1.5-1.1c-0.9-0.5-1.1-0.2-2-0.7l-3.5-1.8    c-1.6-0.9-2.4-0.9-3.8-1.6c-2.8-1.4-0.1-0.5-3.9-1.4c-5.4-1.2-4.9-1.5-8.3-2.3c-10.1-2.5-16.1-4.4-27.6-4.5    c-3.6-0.1-6.8-0.4-10.4-0.4c-1.6,0-3.1,0.4-4.7,0.5c-1.8,0.1-3.6,0.1-5.3,0.3c-2.8,0.4-6,1.2-9.2,1.4l-8.9,1.9    c-1,0.3-2.5,1-3.9,1.4c-1,0.3-1.1,0.5-1.8,0.9c-0.8,0.4-1.3,0.3-2.2,0.5c-2.8,0.5-10.9,4-13,1.9c-6.3-6.3-14.7-10.8-22.5-15.3    c0-3.2-1.2-12.1-2.4-14.3c-0.9-1.6-1.8-3.7-2.5-5.7c-1-2.6-2.6-3.9-2.8-5.8c0.9-1.1,8.4-5.7,8.7-6c1.1-1.1,0.3-0.9,1.9-1.6    c6.1-2.9,6.7-5.6,10.3-8.4c0.6-0.5,1.5-1,2-1.6c0.6-0.7,1.3-1.4,1.9-1.9c1.2-0.9,8.8-4.1,10.4-4.3c2.5-0.3,1.2-0.4,2.9-0.7    c1.2-0.2,2.3-0.3,3.5-0.3l14.8,0.1c4.8,0.5,18.7,0.7,20.6,1.5c4.1,1.7,10.8,5.3,12.6,6c2.2,0.9,1,0.4,2.3,1.5l5.1,2.3    c2.2,0.9,7,4,8.9,5.9c4.6,4.5,3.1,2.6,6.8,8l7,9.6c0.9,0.7,0.1-0.5,0.8,0.9c1.9,3.6,5,7.9,7.1,11.6c1,1.8,2,2.8,2.8,4.6    c0.6,1.5,1.7,3.4,2.6,4.8c0.7,1.2,1,0.8,3,4.4c1.3,2.3,1,1.1,2.7,4.7c0.5,1.2,0.5,1.8,1.2,2.7C456.9,87.7,457.5,87.5,456.4,89    L456.4,89z M357.5,13.3c-4.5,0-9.4,1.3-13.2,3.1c-2.5,1.2-4.7,2.2-6.8,3.8c-5.9,4.3-4.6,4.2-8.3,7.7c-1.9,1.8-4.4,2.9-6.4,4.6    c-1.2,1-8.6,6.2-9.7,6.2c-1.4,0-2-1.6-2.7-2.6c-1.6-2.5-5.3-6.7-7.9-8.4c-1.2-0.8-2-1.4-3-2.3c-7-5.6-12.1-8.6-20.4-11.6    c-2.2-0.8-4.4-1.2-6.8-1.5c-0.5-0.1-1.7-0.3-2.2-0.4c-7.9-1.4-16.2-1.5-24.3-2.4c-3.9-0.4-11.4-0.5-15.2,0.1    c-3.2,0.5-6.8,0.2-10.2,0.5c-1.6,0.1-3,0.6-4.7,0.6c-8.1,0.1-13.9,2-20.6,6l-10.3,5.7c-1.3,0.6-2.4,1.1-3.5,1.9    c-2.2,1.5-3.7,2.9-5.5,4.8c-8.6,8.6-4.5,5-9.7,11.6c-4.2,5.4-8.2,11.6-11.4,17.7c-1.5,2.9-2.5,6.2-4.8,8.5    c-1.9,1.8-3.3,3.7-4.8,5.8c-1.6,2.1-3.4,3.2-5,5.4c-2.2,3-5.7,5.5-7.3,8.7c-1.1,2.2-3.6,6.1-5.5,7.8c-2.3,2-4.2,4.5-6.5,6.8    c-1,1-1.7,1.7-2.7,2.7c-1.8,1.8-3,3.9-4.9,5.8c-1.4,1.3-3.2,4.6-4.4,6.3c-0.7,1.1-1.4,2.1-2.1,3.2c-0.7,1.2-1.1,2.3-1.9,3.4    l-8.4,12.6c-0.7,1.1-1.5,2-2.2,3.2c-3.6,6.6-4.9,10.1-9.2,17.1c-3.4,5.6-5.8,11.8-9.2,17.5l-9.4,17c-0.6,1.2-0.8,2.5-1.6,3.7    c-1.4,2.3-2.4,4.6-3.6,7L53.9,215c-0.5,1-1.3,2.4-2,3.4c-1.5,2.3-2.3,4.6-3.6,7.1c-0.7,1.3-1.2,2.2-1.9,3.4    c-3.7,7.5-5.1,10-8.4,17.9l-1.5,3.9c-1.1,2.6-2.7,4.4-3.5,7.2c-0.7,2.5-2.1,4.8-3,7.4c-0.3,0.8-0.5,1.3-0.7,1.9    c-0.3,0.8-0.3,1.3-0.5,2.2l-3.7,12.3c-0.5,1.5-1.1,2.1-1.6,3.7c-1.7,6.1-4,12.5-5,18.6c-0.1,0.7-0.4,1.4-0.6,2.1    c-0.4,1.5-0.1,3.1-0.6,4.7c-0.2,0.6-0.5,1.1-0.7,2l-0.7,4.6c-0.1,2.4,0,5.3-0.6,7.4c-0.3,1.3-0.5,3.4-0.6,4.7    c-0.2,3-1.3,5.7-1.7,8.6c-0.3,2.5,0.1,2.5-0.6,4.7c-0.5,1.6-0.1,3.1-0.6,4.7c-0.7,2-0.6,2.1-0.6,4.8c0,4.5-3.2,14.7-3.3,17.7    c-0.1,3.6-0.3,2.3-0.5,4.8c-0.3,2.3-0.1,2.6-0.7,4.7c-0.8,2.9-0.2,6.2-0.4,9.1l-0.7,4.6c-0.3,1.6-0.1,3.9-0.3,5.1    c-0.9,5.3-0.7,3.8-0.7,9.7c0,1.4-0.1,3.7-0.4,4.9c-0.8,3.1-0.5,1.1-0.8,4.6c-0.1,1.6-0.8,2.7-0.9,4.4c-0.1,3.1,0.2,4.4-0.6,7.4    c-0.5,1.9-0.6,4.7-1.2,6.8c-0.5,1.7-0.2,3.1-0.3,5C0.5,443,0,443.7,0,445.7l1,14.4c0.4,1.4,0.7,2.7,0.8,4.2    c0.1,2.3,0.5,2.3,0.8,3.9c1.1,5.1,0.8,6.5,2.7,12.1c1.4,4.1,1.9,6.6,3.8,10.7c1,2.2,2.1,4.5,2.8,6.9c0.4,1.4,0.6,2.4,1.3,3.7    c0.6,1.2,1.1,1.8,1.7,3.1c3.4,6.8,3.3,5.1,6.8,10c1.7,2.3,3.2,4.8,5.3,6.9c3.3,3.3,6.3,6.3,9.8,9.5c1,0.9,2.1,1,3.4,1.7    c1.2,0.7,1.8,1.2,2.8,1.9c2.9,2,6.3,3.6,9.2,5.6c3.8,2.5,6.3,2.6,9.8,4.5c2.1,1.2,4.2,2.5,6.5,3.3c1.6,0.6,2.2,0.5,3.6,1.5    c1.9,1.4,4,2.6,6.3,3.5c1.2,0.5,2.4,0.7,3.6,1.1l7,2.7c3.9,1.3,7.6,1.9,11.3,3.5c1.6,0.6,2.5,0.4,4,0.7c5.2,1.2,9.6,4.3,15,4.2    c3.4,0,14.4,2.8,16.6,3c0.9,0.1,1.7-0.1,2.6,0.1c0.5,0.1,1.2,0.4,1.8,0.5c1.6,0.4,2.6,0.1,4.4,0.3c1.4,0.1,2.3,0.8,3.9,0.9    c1.6,0.1,3.2,0.2,4.5,0.3c3.8,0.3,2,0.4,4.2,0.8c3,0.6,6.6-0.3,9.6,0.2c1.7,0.3,2.2,0.8,3.9,0.8c3.2,0.1,6.6,0,9.8,0    c6.2,0,6.5,0.9,8.6,0.9h34.4c1.9,0,2.6-0.9,5.3-0.9c2.1,0,3.4-0.5,5.4-0.8c2-0.3,4.2,0.1,6.1-0.1c1-0.1,1.4-0.5,2.2-0.7    c4.4-1.1,10.2,0.4,14.2-1c2.8-1,8.4-0.4,11.8-0.4l36.4,0c2.9,0,3.2-0.7,5.3-0.9c4.6-0.3,18.4,0,24.3,0c2.5,0,12.4-2.4,14.8-3.2    c1.6-0.5,3.5-0.6,4.9-1.3c3.6-2.1,11.4-4.2,12.9-5.2c1-0.6,1.1-0.6,2.3-1c0.7-0.3,1.2-0.6,2-0.9c9.5-4.8,11.7-14,14.1-14.6    c0.6-0.1,0.8-0.1,1.4-0.1c0.2,0.9,0.5,1.3,0.8,2.1c1.8,4.6,2.7,8.7,7.2,11.4c1.2,0.7,2.5,1.3,3.6,2c1.4,0.9,1.6,1.5,3.2,2.2    l6.7,3.9c0.8,0.5,0.9,0.7,1.7,1.2c2.7,1.7,5.4,3.4,7.9,5.5c1.1,0.9,2,1.4,3.1,2.2c3.2,2.1,10,7,13.2,8.4l7.7,3.3    c4,1.6,4.7,1.3,8.6,2c4.5,0.8,4.9,1.3,9.7,1.3c1.9,0,2.8,0.5,4.7,0.6c4.9,0.4,10.1,1.2,15.1,1.2c4.9,0,11-0.6,15.8,0.5    c3.1,0.7,7,0.3,10.3,0.4c1.9,0.1,2.7,0.6,4.7,0.6h12.1l13.2-1.3c4-0.7,7.4-1.9,11.2-3c2-0.6,3.8-1,5.8-1.3    c2.5-0.4,3.3-1.1,5.6-1.6c3.7-0.8,7.3-2.2,10.5-3.7l4.9-2.2c3.3-1.3,5.9-3.5,9.1-5.1c4.5-2.3,3.5-2.1,6.5-4.2    c0.8-0.5,1.5-0.8,2.3-1.3c4.6-3.4,7.6-8.9,7.6-15.2c0-1.4-2.9-9.7-3.7-11.2c-2.5-5-4-10.4-6.5-15.4c-1.6-3.3-3.5-5.9-5.4-9.1    c-1-1.6-1.9-2.6-3-4.1c-4.5-6.2-4.9-12.2-10.2-19.1c-1.1-1.4-1.9-2.8-3.1-4.3l-6.9-7.6c-3.7-3.6-9.2-13.3-16.3-20.1l-7.6-6.9    c-0.7-0.6-1.6-1-2.3-1.6L529,448c-3-2.1-5.8-3.9-8.7-5.8c-2.9-2-6.4-3.3-9.4-5.1c-4.1-2.5-8-3.4-10.9-7.4c-0.6-0.9-1-1.2-1.6-1.9    c-5-6-0.6-6.5,3.5-11.7c4.8-6.1,6.8-7.8,9.9-15.3l1.6-4.6c0.9-3.6,1.5-12.1,0.2-15.7c-0.3-0.8-1.4-3.3-1.4-4.2    c0-1.8,5-7.9,6.6-9.4c1.8-1.7,2.9-3.9,4.5-5.9c4.1-5.1,4.6-8.6,4.6-15.2c0-2.4-2.1-7.1-3.5-8.9c-2.1-2.7-3.7-1.3,3.8-11.2l5.1-5.5    c1.9-1.7,3.9-3.2,5.3-5.4c4.1-6.2,6.5-8.6,6.5-17.2c0-2.7-5.4-13.3-6.7-15.5c-1-1.7-2.6-3.3-3.9-4.7c-1.4-1.6-3.3-2.2-4-4.3    c-0.4-1.3-0.7-2.8-1.2-4.2c-1.4-3.9-3.5-7.6-6.1-10.8c-0.8-1.1-1.4-2.1-2.3-3.1c-1.5-1.6-3.6-4.7-5.2-6c-7.5-6.2-5.7-6-1.6-10.1    c1.4-1.4,2.3-2.2,3.5-3.9c7.2-9.8,3.7-4.3,8.6-13.9c1-2,1.4-3.5,1.7-5.7c0.8-6.5,2-9.9,0.9-16.8c-0.2-1.2,0-2.2-0.1-3.4    c-0.2-2.2-0.9-4-0.9-6.5c0-4.2,0.9-7.2,0.9-11.3c0-1-0.3-10.7,0-11c1.8-0.9,2.9,0.3,4.4-1.5c0.7-0.9,1.2-2.8,1.2-4.4    c0-4.7-5.2-9.6-8.2-11.9l-14.8-9.7c-2-1-5-1.8-5.9-3.8c-2.1-4.2-4.1-8.4-7.3-11.9c-0.8-0.9-1.3-1.7-2-2.7    c-1.5-2.1-7.4-8.3-9.4-10.2c-2.3-2.2-14.2-10.4-17-12.3c-1-0.7-2-1.4-3-2c-0.8-0.5-2.7-1.1-3.2-1.6c-1-0.9-0.6-2.7-0.9-4.1    c-1.7-7.2-6-13-9.7-19.3c-0.6-1.1-1.1-1.9-1.7-3l-7.4-12.1c-1.6-3.2-4-5.9-6.1-8.7c-0.7-1-1.2-1.8-1.9-2.8    c-2.7-4-5.2-7.3-8.6-10.7c-3.3-3.3-7.1-6.1-11.3-8.2L396,15.6c-4.4-1.9-12.5-1.7-17.9-1.7c-3,0-5.5-0.6-8.9-0.6H357.5L357.5,13.3z     M208.4,279.6c2.5,1.5,2.5,5,0.1,5.6c-1,0.2-3.5-0.1-4.7-0.2c-1.6,0-3.1,0.3-4.7,0.3c-6.1,0.1-10.9,1.3-16.5,2.4    c-6.5,1.3-13.2,5.8-16.8,11.6c-1,1.7-2.5,4.9-5.3,3.9c-5.6-2,3.9-11.9,6.4-13.8c0.9-0.7,1.8-1.5,2.6-2.1    c4.4-3.5,11.8-5.4,17.5-6.3c1.4-0.2,2-0.6,3.9-0.8C193.1,279.9,207.1,278.8,208.4,279.6L208.4,279.6z M446.6,247.3    c4.3,0,9.1,0.2,13.1-0.8c1.9-0.5,5.5-2.1,6.2,0.9c0.4,1.8-0.1,2.7-1.2,3.3c-0.8,0.5-2.1,1.2-3.1,1.4c-8.4,1.6-14,0.9-22.6,0.4    c0.1,0.4,3,2.7,4.4,4.5l4.2,5.3c2.9,3.8,8.5,8.3,12.9,15.2c0.7,1.1,0.6,1,1.1,2.2c3.6,7.4-1.9,6.8-3.3,5.6c-1.2-1-3.1-5.5-4.8-7.7    c-0.5-0.7-0.8-0.8-1.4-1.5c-2-2.5-0.1-0.8-2.8-3.4l-4.7-4.8c-5.1-5.5-5.3-8.1-12.2-12.9c-3.2-2.2-1.3-1.2-3.8-2.4    c-1-0.5-3.9-3-7.7-4.8c-3-1.5-5.7-2.1-8.4-4.3c-3.3-2.7-0.3-6.7,4.2-4.2c2.2,1.2,16.3,5.8,18.7,6.4c0.9,0.2,1.8,0.2,2.6,0.4    C441.1,246.6,442.9,247.3,446.6,247.3z"></path>
	</g>
</g>
</svg>
